<?xml version="1.0" encoding="utf-8"?>
<!-- Generator: Adobe Illustrator 27.5.0, SVG Export Plug-In . SVG Version: 6.00 Build 0)  -->
<svg version="1.1" id="Layer_1" xmlns="http://www.w3.org/2000/svg" xmlns:xlink="http://www.w3.org/1999/xlink" x="0px" y="0px"
	 viewBox="0 0 2452.216 2167.045" style="enable-background:new 0 0 2452.216 2167.045;" xml:space="preserve">
<g>
	<g>
		<path style="fill:#29ABE2;" d="M1940.603,1062.011c9.629-64.15-17.828-131.102-47.619-186.491
			c-33.846-62.926-81.744-117.107-115.074-179.929c-15.726-29.642-27.971-61.339-47.718-88.696
			c-20.817-28.842-46.811-42.995-77.906-58.022c-6.387-3.086-14.712-6.681-19.413-12.365c-1.167-1.412-9.453-15.379-8.658-16.981
			c3.323-6.696,37.936-2.622,44.962-2.509c8.795,0.142,29.311-14.884,26.219-25.321c-4.038-13.629-9.621-32.661-26.495-33.936
			c-13.488-1.019-26.997,10.192-36.459,18.304c-13.75,11.788-24.503,30.026-41.325,36.741
			c-29.733,11.869-52.608-15.542-74.219-31.655c-39.823-29.691-104.297-28.317-126.439-76.86
			c-10.374-22.744-24.695-24.283-37.914-14.021c-13.548-7.061-29.146-11.367-42.544-14.391c-32.695-7.381-64.392-4.291-96.683,3.938
			c-34.146,8.7-67.032,21.515-100.151,33.388c-38.582,13.831-75.344,35.474-115.027,45.824
			c-34.545,9.011-71.526,8.138-104.728,22.424c-24.989,10.752-46.087,29.922-63.749,50.211
			c-20.147,23.146-36.087,49.484-53.632,74.556c-24.149,34.509-46.168,55.066-88.644,63.436
			c-26.67,5.256-49.626,16.278-65.493,39.252c-16.375,23.709-15.346,53.048-19.392,80.443
			c-5.42,36.705-28.098,68.772-42.922,102.281c-12.885,29.123-22.006,59.536-24.167,91.432
			c-2.758,40.712,0.495,82.851,2.847,123.564c2.475,42.814,6.909,85.778,18.493,127.193c20.932,74.842,58.57,144.735,104.6,207.044
			c45.432,61.503,100.203,120.006,161.527,165.983c29.87,22.394,64.556,38.013,92.987,62.399
			c20.3,17.411,21.451,58.943,54.046,61.154c9.51,0.646,14.262-5.913,22.534-7.612c14.247-2.927,35.181,10.322,47.765,16.208
			c35.741,16.715,71.517,37.945,111.251,43.401c28.793,3.954,54.922-1.945,78.25-19.437c11.531-8.646,21.443-19.049,32.137-28.649
			c19.825-17.797,41.893-20.296,67.783-19.966c39.644,0.507,74.596-1.122,112.789-13.343
			c38.362-12.277,74.813-29.887,110.602-48.187c25.938-13.264,56.128-24.183,79.12-42.323c8.223-6.488,15.811-14.237,20.396-23.809
			c9.42-19.664,6.182-30.309,29.717-41.119c29.947-13.755,57.627-24.643,83.245-46.294c26.996-22.817,49.093-50.523,71.34-77.785
			c23.718-29.062,41.924-57.456,54.51-93.069c12.872-36.424,23.766-73.045,39.864-108.253c11.53-25.214,10.17-41.956,3.476-68.226
			c-4.174-16.375-8.592-33.164-4.944-50.031C1932.689,1088.333,1938.514,1075.928,1940.603,1062.011z"/>
		<path style="fill:#29ABE2;" d="M1987.598,753.524c-4.443-9.925-12.89-16.4-22.717-20.532c-3.388-1.425-9.91,4.698-11.905,6.555
			c-15.162,14.12-25.845,34.894-24.022,56.028c1.602,18.578,13.987,32.617,32.052,36.896c3.418,0.81,7.94-2.704,10.336-4.58
			c3.879-3.036,7.415-6.875,9.643-11.299c5.26-10.448,7.399-22.225,6.161-33.849
			C1990.408,773.401,1991.687,762.662,1987.598,753.524z"/>
		<path style="fill:#29ABE2;" d="M2064.968,1006.611c-0.402-1.197-0.793-2.401-1.234-3.584c-0.56-1.503-1.377-2.636-2.338-3.894
			c-1.453-1.902-3.033-3.713-4.824-5.304c-4.347-3.862-9.652-5.707-15.384-6.259c-3.399-0.329-6.942,2.302-9.423,4.255
			c-3.322,2.613-7.244,6.321-8.864,10.343c-3.095,7.689-7.276,17.156-3.459,25.302c1.261,2.693,3.4,4.556,5.679,6.386
			c3.261,2.62,6.947,4.701,10.573,6.763c1.148,0.652,2.112,0.806,3.436,0.576c2.488-0.432,4.786-1.988,6.796-3.407
			c2.164-1.527,4.105-3.256,5.918-5.187c1.895-2.018,4.208-4.532,5.206-7.149c1.538-4.032,3.004-8.075,4.303-12.19
			c0.519-0.603,1.168-1.097,1.6-1.751C2063.719,1010.347,2065.458,1008.077,2064.968,1006.611z"/>
		<g>
			<path style="fill:#29ABE2;" d="M1899.519,640.996c-1.259-1.83-3.089-3.288-4.842-4.617c-3.081-2.333-6.4-4.353-9.747-6.278
				c-2.264-1.301-4.559-2.549-6.869-3.765c-1.49-0.785-2.256-1.222-4.075-0.993c-0.668,0.084-1.309,0.223-1.954,0.419
				c-3.566,1.091-6.753,2.928-9.694,5.215c-3.497,2.721-6.543,5.956-9.128,9.547c-1.17,1.625-2.631,3.671-2.978,5.661
				c-0.219,1.257-0.086,2.124,0.284,3.276c0.329,1.028,0.612,2.069,0.917,3.103c-1.062,1.336-1.985,2.765-2.644,4.336
				c-0.236,0.654-0.569,1.609-0.615,2.001c-0.138,1.183-0.114,0.496-0.066,0.877c0.053,0.408,0.32,0.99,0.626,1.326
				c0.234,0.256,0.584,0.411,0.885,0.567c1.692,0.877,3.615,1.171,5.474,1.662c0.328,0.773,0.446,1.621,0.852,2.364
				c1.544,2.825,3.95,5.027,6.444,7.008c2.051,1.63,4.289,2.941,6.546,4.263c1.671,0.98,3.112,0.799,4.931,0.196
				c2.677-0.89,5.218-2.448,7.401-4.217c4.569-3.702,9.427-8.574,11.026-14.407c0.045-0.163,0.072-0.352,0.116-0.517
				c1.139-1.053,2.557-1.772,3.558-2.947c1.895-2.225,4.162-5.146,4.773-8.097C1901.22,644.663,1900.87,642.961,1899.519,640.996z"
				/>
			<path style="fill:#29ABE2;" d="M1848.69,657.068c0.026-0.061,0.074-0.108,0.1-0.169
				C1849.045,656.191,1849.158,655.91,1848.69,657.068z"/>
			<path style="fill:#29ABE2;" d="M1848.661,657.142c0.02-0.051,0.011-0.027,0.03-0.074c-0.001,0.004-0.005,0.008-0.007,0.012
				C1848.69,657.061,1847.671,659.596,1848.661,657.142z"/>
		</g>
		<path style="fill:#29ABE2;" d="M2162.697,1394.539c-5.795-8.266-13.907-15.358-23.555-18.734c-2.281-1.582-4.749-2.882-7.423-3.75
			c-11.751-3.815-24.13,2.582-33.267,9.516c-19.747,14.989-38.558,44.698-26.393,69.683c5.475,11.245,17.441,17.417,29.17,20.161
			c15.725,3.68,33.264,3.213,47.27-5.536c14.229-8.888,26.498-24.064,25.624-41.576
			C2173.6,1413.841,2168.624,1402.999,2162.697,1394.539z"/>
		<g>
			<path style="fill:#29ABE2;" d="M2357.052,1361.546c0.249-0.274,0.525-0.756,0.75-0.953
				C2358.465,1360.013,2359.996,1357.434,2357.052,1361.546z"/>
			<path style="fill:#29ABE2;" d="M2411.206,1355.853c-3.23-5.447-9.175-9.024-15.254-10.444c-4.414-1.03-9.156-0.962-13.636-0.529
				c-8.402,0.814-16.161,6.458-21.722,12.426c-1.681,1.805-3.172,3.674-4.587,5.697c0.519-0.741,0.681-0.951,1.045-1.458
				c-1.12,1.232-2.114,2.808-2.953,4.58c-3.242,3.245-6.242,6.734-8.573,10.515c-3.56,5.773-6.086,11.828-6.188,18.669
				c-0.136,9.234,6.324,17.262,13.698,22.087c6.277,4.106,13.515,6.57,21.052,4.836c13.737-3.158,24.971-13.625,32.817-24.896
				C2415.187,1385.438,2418.95,1368.907,2411.206,1355.853z"/>
		</g>
		<path style="fill:#29ABE2;" d="M492.754,936.81c-2.43-10.04-12.193-15.803-21.958-16.791
			c-16.439-1.664-32.102,5.971-42.936,18.129c-3.594,2.821-6.982,5.886-9.829,9.306c-5.487,6.589-11.781,16.931-8.292,25.919
			c2.775,7.15,9.245,10.981,16.651,12.268c13.216,2.297,27.871-1.616,39.332-8.059c10.074-5.663,18.969-14.528,24.316-24.79
			C492.499,948.068,494.039,942.121,492.754,936.81z"/>
		<path style="fill:#29ABE2;" d="M656.074,1785.999c-4.205-4.229-9.773-6.639-15.565-8.283c-0.041-0.045-0.061-0.113-0.103-0.156
			c-2.894-3.026-6.821-5.238-10.727-6.65c-7.917-2.863-16.909-1.229-24.406,2.128c-12.772,5.719-23.779,16.033-31.341,27.728
			c-5.599,8.662-9.699,19.021-8.48,29.512c1.055,9.086,7.173,16.475,14.847,21.005c9.906,5.849,21.112,9.147,32.661,7.826
			c14.781-1.694,27.694-11.791,37.256-22.518c6.819-7.651,12.688-17.885,13.329-28.324
			C664.048,1800.094,662.021,1791.982,656.074,1785.999z"/>
		<g>
			<path style="fill:#29ABE2;" d="M808.386,1886.903c-1.009-2.74-2.527-4.837-4.698-6.731c-3.311-2.89-7.176-5.157-11.013-7.266
				c-1.837-1.009-3.715-2.13-5.628-2.96c-1.647-0.715-5.073,0.361-6.45,0.967c-1.534,0.677-3.038,1.482-4.517,2.267
				c-1.481,0.783-2.851,1.803-4.221,2.781c-1.816,0.552-3.57,1.359-5.307,2.291c0.974-0.52,1.946-1.039,2.92-1.558
				c-1.022,0.48-2.019,1.01-2.991,1.592c-0.197,0.139-0.266,0.188-0.445,0.313c-0.941,0.656-2.054,1.377-3.017,2.132
				c-2.259,1.771-4.603,4.038-6.447,6.235c-1.834,2.184-3.46,4.522-4.699,7.098c-0.92,1.912-1.567,4.001-1.803,6.113
				c-0.414,3.722-0.322,7.449-0.518,11.178c-0.051,0.776-0.103,1.554-0.15,2.33c-0.001,0.004-0.005,0.008-0.007,0.012l0.093-1.582
				c-0.049,0.731-0.241,1.439-0.392,2.153c-0.562,1.308-0.964,2.673-1.045,4.114c-0.253,0.823-0.131,1.571,0.367,2.249
				c0.277,1.102,1.044,1.732,2.299,1.892c0.113,0.019,0.233-0.03,0.346-0.018c7.832-0.156,15.709,0.396,23.464-1.069
				c12.432-2.351,23.275-10.789,30.192-21.168c1.619-2.429,3.307-5.724,3.8-8.673
				C808.751,1890.212,808.915,1888.338,808.386,1886.903z"/>
			<path style="fill:#29ABE2;" d="M766.036,1878.599c0.096-0.066,0.215-0.151,0.306-0.216
				C762.523,1881.072,762.498,1881.087,766.036,1878.599z"/>
		</g>
		<path style="fill:#29ABE2;" d="M1015.541,2083.147c-3.105-3.941-8.13-6.882-13.212-6.919c-0.816-0.005-1.585,0.195-2.384,0.256
			c-1.257-0.781-2.22-1.92-3.646-2.485c-6.665-2.633-13.977-0.216-19.77,3.401c-13.605,8.493-28.157,27.365-18.288,43.588
			c3.81,6.266,11.032,9.918,17.821,11.999c3.976,1.22,7.936,1.876,12.104,1.392c5.838-0.677,11.398-3.981,15.941-7.504
			c9.06-7.023,17.246-17.404,16.9-29.385C1020.861,2092.425,1018.653,2087.097,1015.541,2083.147z"/>
		<path style="fill:#29ABE2;" d="M1596.299,1858.293c-3.622-6.123-10.02-9.98-16.367-12.776c-4.693-2.07-9.737-3.088-14.831-3.672
			c-7.457-2.738-15.46-4.025-23.291-3.319c-8.62,0.778-16.585,4.542-24.122,8.549c-9.425,5.008-17.895,12.06-24.863,20.116
			c-8.335,9.636-15.692,23.236-11.953,36.348c2.627,9.211,9.125,16.876,16.848,22.295c5.633,3.954,11.925,6.928,18.525,8.832
			c9.038,5.019,19.161,7.837,29.615,6.776c11.078-1.125,21.299-7.587,29.175-15.094c7.252-6.913,14.267-16.477,15.802-26.796
			c3.45-5.66,6.428-11.571,8.229-17.766C1601.428,1873.668,1600.588,1865.542,1596.299,1858.293z"/>
		<g>
			<path style="fill:#29ABE2;" d="M1753.458,1794.751c-0.249,0.113-0.499,0.219-0.748,0.334c-0.086,0.042-0.157,0.08-0.24,0.123
				C1753.739,1794.664,1753.913,1794.566,1753.458,1794.751z"/>
			<path style="fill:#29ABE2;" d="M1884.169,1840.069c-2.897-8.815-7.828-17.046-13.634-24.241
				c-1.892-2.344-3.965-4.771-6.193-7.129c1.631-2.777,2.361-5.385,1.2-7.06c-19.026-27.438-56.759-45.516-90.154-37.333
				c-22.266,5.454-42.029,22.431-51.906,42.983c-9.159,19.056-7.648,41.502-1.365,61.185c9.903,31.02,34.137,55.923,67.452,59.735
				c34.027,3.896,68.631-13.581,87.079-42.301C1885.424,1872.248,1889.345,1855.82,1884.169,1840.069z"/>
			<path style="fill:#29ABE2;" d="M1849.455,1889.537c0.07-0.046,0.136-0.078,0.208-0.124c-0.041,0.061-0.078,0.116-0.12,0.181
				c0.015-0.011,0.027-0.02,0.042-0.031c0.068-0.077,0.132-0.142,0.2-0.223c0.036-0.023,0.073-0.043,0.109-0.067
				c0.011-0.023,0.052-0.1,0.066-0.128c0.055-0.069,0.109-0.112,0.163-0.182c0.234-0.305,0.174-0.135,0.245-0.176
				c0.124-0.161,0.278-0.327,0.378-0.475c-0.332,0.303-0.446,0.426-0.703,0.668c0.08-0.155,0.173-0.352,0.289-0.576
				c-0.136,0.189-0.367,0.558-0.538,0.811C1849.68,1889.323,1849.552,1889.443,1849.455,1889.537z"/>
		</g>
		<path style="fill:#29ABE2;" d="M107.395,1158.893c-0.449-4.908-1.877-10.603-5.671-13.981c-3.234-2.882-7.907-5.499-12.253-6.03
			c-14.348-1.754-27.531,5.125-37.854,14.572c-6.413,5.868-12.59,13.913-14.38,22.634c-1.249,6.094,0.179,11.381,3.043,16.741
			c2.513,4.703,6.292,8.574,10.216,12.123c3.213,2.906,6.623,5.295,10.495,7.24c8.668,4.352,18.099-0.073,25.125-5.741
			c8.959-7.227,17.175-17.348,18.36-29.225c0.406-4.061,0.229-8.136-0.242-12.18c0.355-0.442,0.835-0.785,1.144-1.253
			C106.294,1162.406,107.554,1160.642,107.395,1158.893z"/>
		<path style="fill:#29ABE2;" d="M2186.548,1701.927c-2.447-1.222-4.958-1.923-7.67-2.249c-4.097-0.491-8.159-0.253-12.174,0.357
			c-1.14-0.572-2.393-0.852-4.054-0.553c-4.584,0.824-8.724,3.376-12.414,6.329c-3.648,2.205-7.103,4.745-10.112,7.608
			c-4.098,3.896-7.664,8.44-10.158,13.53c-1.467,2.994-2.008,5.624-2.041,8.878c-0.034,3.282,1.904,6.578,3.975,9.018
			c1.268,1.494,2.734,2.817,4.266,4.036c0.978,0.777,2.085,1.367,3.183,1.962c1.908,1.035,3.835,2.042,5.798,2.973
			c1.434,0.68,2.886,1.322,4.348,1.937c1.001-0.003,2.002-0.004,3.001-0.007c2.025-0.357,3.917-1.051,5.675-2.084
			c3.892-1.949,7.578-4.608,10.655-7.69c2.569-2.571,4.96-5.347,6.968-8.381c1.28-1.779,2.203-3.711,2.774-5.797
			c0.688-1.519,0.924-3.118,0.707-4.8c-0.242-1.138-0.24-2.303-0.411-3.448c0.912-0.771,1.923-1.417,2.774-2.261
			c2.725-2.704,5.345-5.732,7.052-9.203c0.813-1.656,1.655-3.863,1.365-5.769C2189.73,1704.199,2188.351,1702.827,2186.548,1701.927
			z"/>
		<path style="fill:#29ABE2;" d="M2172.72,2004.641c-2.101-5.272-5.033-10.022-9.292-13.82c-3.771-3.365-8.996-5.522-13.95-6.464
			c-5.679-1.078-11.391-0.387-16.774,1.631c-5.779,2.166-11.095,6.15-15.526,10.371c-4.601,4.386-8.727,9.52-11.365,15.345
			c-2.627,5.799-3.45,12.977-0.922,18.951c2.588,6.123,6.187,12.567,11.924,16.255c5.316,3.416,11.266,5.035,17.591,3.718
			c13.389-2.787,25.163-13.055,32.495-24.252c2.54-3.879,5.03-8.772,5.405-13.496c0.176-2.207,0.111-4.025-0.233-5.78
			C2172.349,2006.297,2172.727,2005.515,2172.72,2004.641z"/>
		<path style="fill:#29ABE2;" d="M705.041,76.473c-2.085-6.618-5.58-12.714-10.446-17.685c-5.494-5.611-12.01-8.931-18.961-10.261
			c-4.364-5.291-8.995-10.292-13.628-14.952c-1.935-1.948-5.883-0.805-7.899,0.063c-3.538,1.524-6.654,3.765-9.547,6.277
			c-5.302,4.604-11.734,11.347-11.604,18.869c0.066,3.91,0.746,7.78,1.923,11.471c-0.043,0.195-0.217,0.363-0.249,0.56
			c-2.239,13.474-0.246,26.801,7.526,38.234c7.429,10.924,19.302,17.993,31.643,22.102c5.131,1.706,13.563-5.598,16.649-8.684
			c3.972-3.971,8.03-8.849,8.915-14.539c3.403-3.089,6.591-7.131,6.899-8.594C707.915,91.475,707.459,84.141,705.041,76.473z"/>
	</g>
	<path style="fill:#29ABE2;" d="M1024.28,649.659c0,0-163.365,95.874-241.152,297.485c-63.846,210.52-71.394,176.245-92.965,176.203
		c-21.572-0.041-81.471-130.6,1.076-299.717c82.547-169.117,255.745-231.219,305.744-232.647
		C1046.981,589.554,1050.965,629.407,1024.28,649.659z"/>
</g>
</svg>
