<?xml version="1.0" encoding="utf-8"?>
<!-- Generator: Adobe Illustrator 27.5.0, SVG Export Plug-In . SVG Version: 6.00 Build 0)  -->
<svg version="1.1" xmlns="http://www.w3.org/2000/svg" xmlns:xlink="http://www.w3.org/1999/xlink" x="0px" y="0px"
	 viewBox="0 0 1122 1122" style="enable-background:new 0 0 1122 1122;" xml:space="preserve">
<g id="BG">
	<rect style="fill:#FFFFFF;" width="1122" height="1122"/>
</g>
<g id="Object">
	<g>
		<path d="M585.932,207.493c1.089-0.351,2.207-0.602,3.309-0.902c-0.93,0.085-1.879,0.082-2.81,0.004
			C586.266,206.894,586.1,207.195,585.932,207.493z"/>
		<path d="M499.78,296.295c-1.662-0.271-4.073,0.516-5.798,0.724C495.915,296.776,497.848,296.538,499.78,296.295z"/>
		<path d="M493.364,215.906c0.17,0.298,0.33,0.612,0.496,0.923C493.706,216.547,493.551,216.182,493.364,215.906z"/>
		<path d="M658.479,396.258c0.863-0.676,1.595-0.969,2.376-1.116C660.147,394.834,659.292,395.62,658.479,396.258z"/>
		<path d="M591.72,389.443c-0.051-0.045-0.093-0.104-0.142-0.151C591.627,389.343,591.668,389.395,591.72,389.443z"/>
		<path d="M590.775,449.797c1.515-0.369,3.654-0.606,5.302-1.29c-0.05,0.028-0.086,0.003-0.138,0.036
			C594.321,448.568,592.351,449.412,590.775,449.797z"/>
		<path d="M483.177,351.897c-1.449,1.891-0.677,3.731-2.297,5.044c0.114-0.027,0.207,0.029,0.33-0.035
			C482.741,356.109,482.047,353.371,483.177,351.897z"/>
		<path d="M842.722,445.532c-7.253,0.436-14.201,2.102-21.378,3.023c-7.194,0.922-14.471,1.062-21.681,1.944
			c-7.132,0.874-14.246,1.738-21.356,2.771c-7.611,1.106-15.149,0.878-22.802,1.261c5.927-2.801,12.29-4.39,18.221-7.19
			c5.855-2.763,11.56-5.594,17.043-9.046c2.056-1.294,4.224-2.568,6.098-4.126c0.704-0.587,1.855-1.182,0.963-1.655
			c-0.895-0.474-4.251,1.403-5.023,1.731c-3.057,1.289-6.028,2.762-9.031,4.168c-11.073,5.182-22.683,8.946-33.818,13.954
			c-4.19,1.885-9.282,4.142-13.923,4.121c-5.299-0.026-10.602-0.141-15.896-0.384c-13.984-0.645-27.923-1.938-41.659-4.676
			c4.392-0.974,8.605-2.931,12.751-4.648c1.193-0.496,7.772-3.016,4.554-4.781c-2.68-1.469-9.574,1.685-12.086,2.652
			c-2.397,0.922-3.25,0.289-5.676-0.386c-2.589-0.721-5.232-1.017-7.859-1.556c-4.947-1.019-9.795-2.805-14.713-4.026
			c-4.422-1.097-8.982-1.733-13.28-3.266c-7.21-2.57-14.577-3.814-21.768-6.565c6.138,0.166,12.308-0.049,18.441-0.321
			c2.839-0.125,5.677-0.292,8.517-0.444c3.305-0.177,5.643,0.534,8.812,1.248c5.288,1.193,10.665,1.914,15.957,3.18
			c4.836,1.158,9.2,3.167,14.254,3.263c4.505,0.085,8.224,1.377,12.62,2.091c4.92,0.8,10.144,1.072,15.104,0.548
			c2.565-0.272,6.885-1.274,2.502-3.072c-4.523-1.855-9.911-2.427-14.7-3.323c-5.443-1.017-9.975-2.529-15.591-2.525
			c-5.702,0.003-11.409-2.395-16.994-3.478c9.012-0.291,17.953-2.495,26.953-3.169c4.76-0.357,9.174-1.534,13.745-2.83
			c2.254-0.638,4.547-1.217,6.73-2.08c1.46-0.578,3.01-1.961,4.477-1.942c-0.102-0.827,0.046-2.31-0.365-2.975
			c-0.568-0.919-1.385-0.606-2.752-0.615c-2.026-0.015-4.052-0.018-6.078-0.056c-3.826-0.072-7.653-0.174-11.475-0.357
			c-8.511-0.41-17.021-0.766-25.524-1.314c-16.296-1.05-32.304-2.911-48.173-6.73c4.943-1.023,9.582-3.093,14.558-3.78
			c2.432-0.337,5.192-1.218,7.568-1.197c2.574,0.023,5.418,0.772,7.942,1.261c5.654,1.093,11.59,2.318,17.36,2.448
			c2.236,0.051,5.863,0.585,7.934,0.08c0.693,0.332,1.096,0.168,1.213-0.493c0.015-0.487,0.106-0.671,0.273-0.549
			c0.276,0.06,1.244,0.927,0.991,1.198c6.008,0.378,12.346,2.053,18.337,1.371c2.546-0.289,4.955-0.879,7.538-0.704
			c2.78,0.189,5.443,0.66,8.242,0.491c-0.605-1.897-1.363-4.49-3.035-5.806c-1.097-0.864-3.194-0.968-4.836-1.082
			c-4.622-0.322-9.005,1.416-13.637,0.943c-10.763-1.097-21.513-0.36-32.236-1.511c0.409,0.647,0.736,1.332,0.98,2.059
			c-1.502-0.218-2.326-0.906-3.564-1.643c-1.154-0.688-1.283-0.803-2.776-1.035c0.568-0.133,1.138-0.244,1.712-0.337
			c-0.172-0.298-0.366-0.436-0.566-0.523c-0.781,0.147-1.513,0.439-2.376,1.116c0.813-0.637,1.667-1.424,2.376-1.116
			c0.516-0.097,1.027-0.167,1.706-0.111c2.463,0.204,4.52-0.326,6.893-1.252c2.228-0.869,4.533-1.709,6.703-2.708
			c2.641-1.218,4.768-1.163,7.712-1.204c11.44-0.162,22.92-0.307,34.343-0.916c5.419-0.289,10.95-0.447,16.286-1.487
			c4.818-0.938,9.523-2.117,14.378-2.881c4.926-0.776,9.848-1.856,14.8-2.444c5.148-0.612,10.329-0.68,15.314-2.252
			c4.418-1.395,8.454-3.749,12.905-5.039c4.933-1.429,10.042-1.891,14.901-3.629c5.107-1.827,10.238-3.975,15.015-6.553
			c3.852-2.08,8.586-4.545,11.477-7.935c3.76-4.408-4.258-2.365-6.385-1.774c-4.751,1.324-9.427,2.919-14.156,4.317
			c-4.656,1.377-9.235,3.047-14.012,3.975c-4.643,0.903-9.149,1.604-13.554,3.425c-5.445,2.253-10.146,4.732-16.083,5.496
			c-5.705,0.732-11.232,1.78-16.881,2.858c-5.749,1.098-11.385,2.27-17.047,3.753c-6.22,1.63-12.684,2.069-19.073,2.641
			c0.687,1.967,0.695,2.098-1.33,2.657c-0.607,0.169-1.76,0.607-2.409,0.439c-1.453-0.377-1.468-1.147-1.355-2.664
			c-11.322,0.888-22.714,1.404-34.06,1.965c0.293,1.991,0.081,5.05-2.144,6.147c-3.448,1.7-2.254-4.82-3.633-5.904
			c-0.672-0.53-4.44,0.151-5.378,0.176c-1.31,0.035-2.618,0.06-3.926,0.082c-3.312,0.057-6.632-0.007-9.941,0.093
			c-6.135,0.183-11.972,1.434-18.142,0.904c-6.867-0.588-13.593-1.22-20.495-1.293c5.838-2.059,11.715-4.001,17.579-5.973
			c2.337-0.786,4.7-1.806,7.119-2.305c3.052-0.628,6.311,0.017,9.421,0.118c2.993,0.099,6.028,0.307,9.022,0.221
			c2.95-0.084,5.836-0.737,8.795-0.823c2.455-0.072,4.941-0.234,7.398-0.171c2.682,0.068,5.341,0.696,8.032,0.463
			c2.534-0.219,4.91-1.286,7.447-1.449c2.776-0.177,5.502,0.401,8.293,0.127c2.63-0.259,5.308-0.581,7.883-1.175
			c1.62-0.375,5.468-0.968,6.61-2.418c2.159-2.743-6.483-2.475-7.853-2.505c-4.711-0.102-9.81-0.479-14.306-0.434
			c-2.96,0.03-5.505,1.234-8.384,1.642c-2.88,0.407-5.826-0.193-8.724-0.11c-6.104,0.174-12.066,1.576-18.132,1.697
			c6.962-2.406,13.017-7.194,20.204-9.13c4.09-1.103,8.769-1.144,12.965-1.778c4.56-0.687,9.137-1.223,13.687-1.969
			c8.161-1.338,16.069-3.216,24.127-5.022c8.121-1.82,16.614-2.769,24.426-5.683c6.789-2.533,13.947-3.703,20.828-6.01
			c3.764-1.262,7.452-2.685,11.037-4.397c0.724-0.345,4.962-2.007,3.918-2.951c-1.079-0.978-7.041,1.178-8.132,1.464
			c-3.98,1.043-7.964,2.079-11.936,3.154c-3.423,0.927-6.91,1.496-10.346,2.36c-4.178,1.051-8.028,3.045-12.181,4.16
			c-8.26,2.22-16.78,3.456-25.033,5.779c-9.8,2.761-19.767,4.149-29.771,5.948c1.986-1.248,3.626-2.901,5.515-4.27
			c2.084-1.509,4.443-2.316,6.823-3.221c4.778-1.818,8.972-4.71,12.928-7.938c1.868-1.525,3.392-3.79,5.281-5.192
			c1.841-1.367,5.537-0.515,7.913-0.462c5.125,0.113,10.381-0.431,15.463-1.029c1.802-0.213,11.214-0.655,11.886-2.856
			c0.602-1.972-8.071-2.07-9.068-2.118c-5.094-0.239-10.177-0.248-15.273-0.278c-4.895-0.029-9.647-0.723-14.524,0.097
			c-2.893,0.488-5.733,1.338-8.659,1.629c-3.017,0.298-6.06,0.076-9.084,0.19c-6.352,0.238-13.06,1.106-19.25,2.526
			c1.641,0.908-0.371,2.403-1.32,2.722c-0.775,0.262-5.67,0.281-3.435-1.569c-8.294,1.93-16.882,2.605-25.205,4.465
			c-8.397,1.875-16.663,4.332-24.824,7.042c-3.816,1.268-7.681,2.531-11.401,4.066c-3.493,1.442-6.685,3.482-10.146,4.99
			c-7.459,3.248-14.607,6.288-21.725,10.278c3.77-4.416,8.801-7.451,13.759-10.403c-1.433,0.2-2.986,0.607-4.43,0.621
			c-0.474,0.005-2.269-0.72-2.459-0.68c-1.669,0.361-4.433,3.222-5.769,4.351c-1.711,1.447-2.994,3.244-4.594,4.794
			c-1.565,1.517-4.896,4.916-7.081,4.864c1.647-3.091,3.357-6.145,5.146-9.155c0.736,1.353,1.517,0.979,2.24,0.069
			c1.107-1.387,0.353-3.052,1.63-4.405c1.219-1.291,2.876-2.297,4.296-3.351c0.549-0.408,2.558-1.356,2.788-2.033
			c0.247-0.729-0.546-2.612-0.747-3.275c-1.159,0.819-2.32,1.637-3.482,2.455c0.783-1.156,2.62-2.953,2.956-4.292
			c0.26-1.041-0.379-2.66-0.215-3.86c0.334-2.458,1.096-5.599,2.582-7.601c1.345-1.813,3.444-2.948,5.715-2.391
			c1.241,0.306,1.834,1.227,2.881,1.756c0.429,0.905,1.012,0.975,1.745,0.206c0.717-0.343,1.435-0.682,2.155-1.019
			c0.147,1.738,0.902,3.766,2.495,4.693c-0.617,0.322-1.815,0.653-2.213,1.181c-0.593,0.787,0.069,0.506-0.285,1.227
			c-0.587,1.191-0.174,1.396-1.736,1.902c-2.906,0.946-4.105,0.317-4.462,3.914c3.484-2.253,7.106-4.311,10.753-6.288
			c1.837-0.995,4.268-1.741,5.941-2.962c1.46-1.067,2.171-3.095,3.741-4.122c-3.788,1.282-7.423,2.914-10.973,4.749
			c-0.313-1.095-0.87-2.06-0.976-3.225c-0.211-2.317,0.629-2.379,2.568-3.202c3.06-1.3,6.087-2.687,9.162-3.951
			c5.818-2.393,11.823-3.406,17.884-4.942c5.409-1.371,10.354-4.025,15.806-5.273c5.088-1.165,10.211-2.218,15.335-3.218
			c13.739-2.686,27.428-4.92,41.331-6.544c13.39-1.564,26.495-4.352,39.976-5.06c-0.212-0.667-0.579-1.236-1.102-1.703
			c1.392,1.201,0.457,1.228,2.254,1.656c0.954,0.227,2.355,0.002,3.352,0.053c2.64,0.136,5.262,0.531,7.906,0.576
			c4.884,0.083,9.485-1.365,14.301-1.776c4.498-0.384,8.944,0.877,13.404,1.262c4.66,0.404,9.433,0.318,14.107,0.358
			c4.298,0.037,8.889,0.011,13.112-0.863c2.095-0.433,4.567-1.225,2.22-3.175c-2.544-2.115-7.122-2.732-10.259-3.362
			c-4.963-0.998-9.933-1.841-14.972-2.341c-4.161-0.413-8.245-1.319-12.403-1.739c-4.998-0.505-9.581,0.646-14.46,1.532
			c-3.987,0.722-7.851,0.462-11.881,0.298c-5.646-0.23-11.27,0.584-16.863,1.27c-5.026,0.617-9.686,1.861-14.597,3.021
			c-4.991,1.179-10.197,1.646-15.265,2.446c-10.47,1.655-20.826,3.469-31.161,5.864c-5.656,1.31-11.293,2.712-16.935,4.082
			c-3.057,0.743-5.731,1.063-8.134,3.048c-0.635,0.526-1.363,1.211-2.208,1.325c-1.191,0.16-1.982-0.878-2.982-0.951
			c-2.084-0.151-5.661,2.215-7.628,2.883c-2.856,0.968-5.808,1.511-8.764,2.069c-5.824,1.1-11.328,2.679-16.837,4.869
			c8.132-7.4,17.044-14.034,26.297-19.97c8.765-5.622,17.275-11.06,26.732-15.493c4.971-2.33,9.58-5.304,14.651-7.419
			c3.943-1.643,7.889-3.312,11.914-4.738c8.507-3.012,17.008-5.798,25.692-8.265c11.421-3.245,23.185-5.283,34.723-8.058
			c1.857-0.447,5.505-0.422,7.015-1.503c0.626-0.448,1.06-1.646,0.786-2.356c-0.469-1.212-1.69-1.207-2.43-1.214
			c-1.661-0.016-5.779,0.749-7.102,1.695c-1.387,0.99-0.345,1.977-2.078,2.591c-1.657,0.587-3.201-0.748-4.722-0.826
			c-2.646-0.134-6.232,1.421-8.812,2.012c-2.774,0.634-5.516,1.37-8.27,2.079c-6.353,1.637-12.59,3.466-18.847,5.434
			c-9.058,2.85-17.89,6.372-26.633,10.054c-5.981,2.518-11.46,5.856-17.352,8.536c-5.994,2.725-11.977,5.656-17.537,9.201
			c-9.969,6.36-20.473,12.332-29.533,19.984c6.359-7.129,15.085-11.748,22.673-17.463c3.929-2.959,7.734-6.017,11.563-9.103
			c4-3.225,8.469-5.594,12.768-8.367c4.265-2.754,7.535-6.681,11.745-9.489c2.404-1.604,4.907-3.073,7.368-4.586
			c9.209-5.662,18.788-10.675,28.036-16.25c7.96-4.799,17.473-7.764,25.415-12.938c8.252-5.376,16.799-10.303,26.207-13.392
			c5.017-1.646,8.993-4.059,13.276-7.088c3.801-2.69,7.883-3.727,12.217-5.255c8.153-2.878,17.644-7.766,23.938-13.762
			c2.263-2.158,2.512-3.965-1.08-3.788c-4.911,0.245-9.949,2.408-14.555,3.986c-2.607,0.895-5.178,1.879-7.742,2.888
			c-0.9,0.354-1.792,0.729-2.706,1.049c-1.794,0.631-1.744,0.574-2.467,2.222c-0.937,2.133-1.508,3.673-3.984,4.372
			c-2.304,0.651-4.356-0.168-5.434-2.35c-3.093,1.75-5.654,4.252-8.646,6.15c-2.614,1.658-5.575,2.604-8.457,3.682
			c-6.437,2.408-12.939,6.006-18.72,9.72c-2.768,1.779-5.229,3.999-8.013,5.754c-3.275,2.063-6.787,3.816-10.171,5.695
			c-6.687,3.712-13.343,7.366-19.849,11.388c-6.336,3.918-12.544,8.029-18.765,12.127c-2.827,1.863-5.658,3.725-8.468,5.613
			c-3.188,2.142-5.793,4.879-8.761,7.287c-5.238,4.246-11.692,6.781-17.107,10.831c-5.135,3.841-10.38,7.46-15.674,11.082
			c-6.537,4.471-13.596,7.786-18.992,13.74c-2.531,2.792-4.611,6.632-7.548,8.9c-2.898,2.238-5.757,4.441-8.535,6.838
			c2.947-7.27,5.932-14.232,10.367-20.754c4.315-6.344,8.791-12.43,13.557-18.444c3.701-4.667,7.861-8.818,12.222-12.868
			c5.953-5.529,11.571-11.284,18.005-16.269c14.513-11.244,29.916-21.101,45.599-30.615c7.349-4.458,14.385-9.366,21.865-13.606
			c7.214-4.089,14.893-7.222,22.068-11.348c7.147-4.11,14.437-6.864,22.044-10.003c2.136-0.883,23.67-8.443,23.24-10.191
			c-0.602-2.424-25.105,6.404-27.41,7.251c-4.356,1.597-8.784,2.98-12.919,5.114c-2.476,1.278-4.838,2.776-7.229,4.204
			c-1.091,0.652-2.222,1.237-3.312,1.885c-1.218,0.725-1.977,1.583-3.135,2.391c-1.559,1.089-3.203,0.94-4.781,1.417
			c-2.572,0.778-5.099,2.72-7.409,4.072c-4.965,2.902-9.874,5.832-14.581,9.14c-9.989,7.022-20.656,13.041-30.699,19.99
			c-11.209,7.757-22.649,15.7-32.675,24.97c2.177-2.536,4.813-4.805,7.289-7.046c2.607-2.359,5.815-3.939,8.318-6.416
			c1.988-1.968,3.498-4.373,5.669-6.162c2.526-2.084,5.498-3.541,8.031-5.634c1.657-1.372,13.388-10.274,11.624-12.628
			c-1.687-2.25-12.98,6.122-14.607,7.254c-2.559,1.778-5.32,3.265-7.847,5.081c-3.018,2.168-4.819,5.23-7.374,7.839
			c-2.291,2.34-5.249,3.898-7.606,6.172c-2.725,2.627-5.599,5.315-7.942,8.291c-4.671,5.932-9.752,11.414-14.681,17.143
			c-5.099,5.928-9.599,12.385-14.002,18.837c-2.368,3.468-4.581,6.824-6.405,10.613c-1.861,3.866-4.599,7.063-6.885,10.666
			c-4.207,6.636-7.323,13.942-11.66,20.517c-0.908-2.1-1.693-3.511-1.053-5.743c0.878-3.06,2.521-5.805,4.001-8.595
			c2.864-5.399,5.285-11.334,7.521-17.022c2.34-5.956,5.564-10.848,8.688-16.376c2.223-3.933,3.252-8.356,5.78-12.137
			c6.798-10.162,14.304-20.247,22.951-28.915c4.573-4.587,9.646-8.88,13.906-13.752c1.69-1.934,3.067-4.128,4.828-6.003
			c2.172-2.312,4.747-4.303,7.124-6.398c2.549-2.248,5.132-3.858,8.033-5.604c2.336-1.406,6.706-4.184,7.68-6.955
			c0.544-1.547-0.638-3.91-0.132-5.676c0.438-1.529,1.391-2.563,2.905-3.101c2.725-0.971,5.273-0.763,5.983,2.312
			c4.475-2.36,8.41-5.632,12.301-8.846c1.561-1.288,8.817-6.85,7.429-9.5c-2.331-4.449-21.501,8.382-24.754,9.957
			c-5.102,2.472-8.464,5.137-12.023,9.599c-3.343,4.192-8.146,6.132-12.017,9.708c-8.538,7.895-15.423,17.124-23.264,25.696
			c-7.899,8.634-14.789,17.941-21.133,27.76c1.716,0.5,1.799,2.428,0.492,3.454c-0.692,0.544-1.476,0.27-2.2,0.544
			c-0.973,0.366-1.152,0.429-1.888,1.561c-2.374,3.653-3.692,7.45-5.539,11.349c-1.91,4.032-4.916,7.42-7.172,11.247
			c-2.303,3.903-3.858,8.214-5.976,12.221c5.173-26.863,13.679-53.053,29.119-75.887c3.824-5.654,8.009-11.052,12.304-16.353
			c4.255-5.254,8.371-10.729,13.048-15.618c4.583-4.79,9.288-9.308,14.407-13.517c5.015-4.124,9.184-9.163,14.278-13.17
			c5.069-3.986,10.35-7.689,15.41-11.697c2.524-2.002,5.053-3.992,7.516-6.066c1.706-1.438,5.52-3.737,6.47-5.907
			c0.485-1.106,0.645-0.923-0.551-0.845c-2.161,0.138-5.319,2.795-7.026,3.873c-5.463,3.445-10.7,7.199-15.923,10.99
			c-5.332,3.871-10.453,7.457-15.057,12.228c-4.788,4.963-10.245,9.13-15.132,13.98c-9.846,9.775-18.474,20.85-26.586,32.087
			c-19.629,27.19-29.573,58.854-36.326,91.355c0.045-2.888-0.598-5.718-0.44-8.613c0.132-2.384,0.434-4.775,0.712-7.144
			c0.855-7.264,1.97-14.616,4.011-21.649c1-3.448,2.011-6.886,3.105-10.305c1.119-3.496,1.561-7.147,2.824-10.597
			c2.316-6.33,6.323-11.729,8.41-18.074c1.04-3.163,2.689-5.298,4.69-7.92c2.109-2.762,3.938-5.894,5.688-8.896
			c0.782-1.342,3.954-5.76,3.284-7.447c-0.73-1.84-3.274,0.554-4.175,1.314c-4.894,4.126-9.727,10.048-13.179,15.444
			c-1.735,2.708-2.09,5.833-3.274,8.758c-1.219,3.009-3.255,5.587-4.457,8.618c-3.037,7.655-4.487,15.769-6.442,23.745
			c-2.052,8.37-3.343,16.714-4.037,25.309c0.813-0.719,1.878-1.187,2.937-1.393c0.152,1.909,0.868,9.163-3.42,7.877
			c-0.225,3.463,0.251,6.755,0.285,10.197c0.036,3.665-0.829,7.276-0.795,10.95c-1.266-3.591-2.419-7.232-3.583-10.856
			c-1.189-3.701-3.232-7.781-2.408-11.616c0.855-3.981,2.032-7.912,2.568-11.955c0.5-3.774,0.321-7.602,0.828-11.374
			c1.922-14.285,6.865-28.874,12.389-42.115c-2.241,0.064-4.089,1.987-6.245,2.612c-2.385,0.691-2.348,0.771-3.115,3.173
			c-1.519,4.748-2.789,9.569-3.946,14.417c-0.566,2.376-1.11,4.756-1.634,7.142c-0.464,2.114-1.776,5.294-1.561,7.462
			c0.15,1.51,1.831,3.148,2.418,4.833c0.539,1.551,0.966,1.924-0.578,2.462c-0.918,0.32-2.253,0.03-3.11-0.288
			c-0.568,5.034-0.47,9.997-1.661,14.955c-1.229-4.207-2.057-8.44-2.789-12.756c-0.323-1.908-0.438-3.442-0.341-5.225
			c0.069-1.247-0.482-5.62,1.239-5.386c0.24-4.295,2.069-7.247,3.526-11.188c1.243-3.363,3.359-8.287,3.012-11.943
			c-0.412-4.315-3.939,0.98-4.871,2.424c-2.34,3.625-4.044,7.628-5.985,11.471c-0.339-3.68-0.715-7.362-0.874-11.054
			c-0.114-2.64-0.632-5.105,0.618-7.364c1.277-2.31,2.914-4.624,4.457-6.773c2.618-3.645,6.308-6.381,9.693-9.277
			c4.243-3.628,8.818-6.859,13.457-9.957c-1.17,2.302-2.333,4.61-3.463,6.933c-0.341,0.702-0.959,1.646-1.138,2.365
			c-0.191,0.4-0.385,0.801-0.576,1.202c0.648,0.148,0.912,0.556,0.793,1.227c-0.677,0.685-2.504,0.219-2.235,1.963
			c0.177,1.136,3.898,3.622,5.098,3.662c1.461,0.049,0.93,0.137,1.708-1.464c0.602-1.24,1.26-2.454,1.904-3.671
			c1.036-1.958,2.082-3.911,3.144-5.854c2.048-3.752,4.242-7.404,6.483-11.043c2.398-3.899,4.28-8.049,6.639-11.963
			c2.462-4.08,5.553-7.857,8.577-11.531c2.919-3.55,6.241-6.3,9.6-9.403c3.318-3.063,5.772-6.636,8.508-10.192
			c2.408-3.129,5.2-5.228,8.422-7.437c3.478-2.385,6.633-5.029,9.869-7.722c3.442-2.867,6.885-5.74,10.081-8.882
			c1.319-1.297,6.827-5.574,6.102-7.722c-1.678-4.974-36.178,18.701-39.482,22.259c-3.543,3.814-5.834,8.557-9.507,12.26
			c-3.147,3.172-6.547,5.968-9.339,9.474c-3.134,3.935-6.207,8.023-8.878,12.29c-2.437,3.893-3.788,8.363-6.208,12.232
			c0.911-0.04,2.03-0.323,2.944-0.181c0.979,0.152,1.406,0.632,2.384,0.478c1.372-0.216,2.038-1.024,3.201-1.948
			c0,0.736,0,1.472,0,2.208c-0.655,0.032-1.305,0.095-1.953,0.193c-0.678,0.538-0.714,2.292-1.652,3.036
			c-0.832,0.661-1.846,0.812-2.85,1.02c-2.148,0.445-2.061-0.017-2.327,2.225c-0.258,2.181-1.902,4.648-4.444,2.982
			c-0.465-0.304-0.606-1.195-0.967-1.353c-0.592-0.256-2.901,0.932-3.453,1.159c-9.671,3.992-20.187,11.684-25.531,20.767
			c0.248-13.726,1.607-27.131,3.875-40.668c1.179-7.035,2.03-13.996,3.914-20.909c1.763-6.465,4.446-12.574,6.282-18.994
			c1.792-6.266,3.602-11.895,6.652-17.684c3.137-5.949,6.179-11.872,9.748-17.583c1.482-2.37,3.19-4.635,4.577-7.06
			c0.482-0.845,1.427-1.893,0.173-1.827c-1.51,0.08-3.988,3.241-4.845,4.155c-2.304,2.46-4.371,5.168-6.286,7.94
			c-3.496,5.054-6.593,10.641-9.292,16.163c-3.039,6.217-3.309,13.496-6.396,19.575c-0.857,1.688-0.676,0.9-2.084,1.542
			c-0.976,0.444-2.006,0.728-2.96,1.251c-3.095,1.697-5.729,4.189-8.122,6.748c-4.061,4.338-7.438,9.792-10.439,14.913
			c-3.41,5.819-2.661,11.909-4.311,18.169c-0.874,3.316-2.389,6.428-3.223,9.756c-0.844,3.362-1.365,6.861-1.888,10.286
			c-1.128,7.391-0.885,14.79-1.648,22.213c-0.758,7.369-1.622,14.842-1.668,22.254c-0.055,8.778,0.347,17.622,1.364,26.341
			c0.481,4.122,0.74,8.358,1.597,12.421c0.796,3.773,2.356,7.338,3.18,11.103c1.513,6.91,2.365,14.621,2.939,21.658
			c0.662,8.154,1.976,16.154,3.165,24.243c-1.24-2.497-2.819-4.816-3.949-7.37c-1.029-2.326-1.619-4.823-2.687-7.133
			c-1.391-3.009-3.275-5.611-4.386-8.759c-4.073-11.542-6.513-23.14-9.152-35.044c-1.132-5.109-2.812-9.926-3.565-15.153
			c-0.36-2.493-0.051-4.985-0.285-7.484c-0.225-2.432-1.29-4.656-1.6-7.058c-0.308-2.393,0.403-4.66,0.695-7.019
			c0.313-2.525,0.479-5.056,0.832-7.581c0.255-1.828,1.158-4.495,0.707-6.3c-0.605-2.427-2.27-1.204-1.96,1.022
			c-1.183-0.414-0.961-0.489-1.836,0.211c-0.652,0.523-1.082,1.912-1.42,2.659c-1.026,2.261-1.728,4.643-2.19,7.077
			c-0.88,4.637-1.823,8.814-0.473,13.449c1.3,4.464,1.096,8.891,2.04,13.409c0.997,4.768,2.707,9.146,3.953,13.81
			c2.927,10.952,5.728,21.627,9.809,32.237c1.594,4.143,3.75,7.789,5.556,11.798c1.87,4.149,3.01,8.492,5.051,12.605
			c2.513,5.065,5.483,10.631,6.853,16.127c1.29,5.169,1.972,10.546,3.15,15.753c-1.062-1.378-2.174-2.718-3.303-4.044
			c5.005-2.208-6.55-19.082-7.996-21.572c-2.512-4.326-4.032-9.136-6.339-13.568c-2.388-4.587-4.707-9.237-7.288-13.717
			c-2.583-4.481-4.803-8.821-6.581-13.689c-1.701-4.654-4.058-8.544-6.45-12.844c-1.325-2.381-2.196-4.946-3.1-7.509
			c-0.438-1.242-0.866-2.489-1.291-3.737c-0.283-0.834-0.564-1.668-0.84-2.505c-0.378,0.049-0.755,0.097-1.134,0.146
			c-0.018-0.003-0.045,0.008-0.063,0.004c-1.933,0.244-3.865,0.482-5.798,0.724c1.725-0.209,4.137-0.995,5.798-0.724
			c0.399-0.051,0.798-0.099,1.197-0.15c-3.71-11.169-6.642-22.496-8.461-34.119c-1.542-9.844-0.143-20.33,1.642-30.057
			c0.915-4.994,1.372-10.03,2.193-15.035c0.782-4.777,2.642-9.244,4.145-13.823c1.514-4.605,2.989-9.208,4.699-13.747
			c0.472-1.245,5.094-12.07,3.984-12.701c-2.034-1.16-10.488,18.808-11.176,20.6c-1.332,3.469-2.609,6.997-3.784,10.52
			c-0.564,1.691-1.346,3.52-1.585,5.294c-0.157,1.156,0.254,1.995,0.729,2.83c0.186,0.276,0.342,0.641,0.496,0.923
			c0.318,0.599,0.601,1.232,0.664,2.035c-0.069-0.864-0.348-1.452-0.664-2.035c-0.166-0.311-0.326-0.625-0.496-0.923
			c-0.322-0.476-0.646-0.925-1.001-1.539c-0.776,4.152-0.94,8.368-1.587,12.533c-0.684,4.401-1.682,8.744-2.014,13.193
			c-1.372-5.526-1.68-11.72-1.655-17.401c0.024-5.592,1.427-10.658,0.558-16.288c-0.748-4.842-0.66-8.506,0.421-13.276
			c1.077-4.746,1.387-9.582,1.783-14.428c0.223-2.708,0.332-5.363,0.288-8.081c-0.026-1.571,0.276-5.061-0.835-6.381
			c-2.695-3.203-5.911,6.972-6.493,8.841c-1.523,4.879-2.55,9.734-3.551,14.735c-1.046,5.229-2.835,9.846-2.077,15.27
			c0.767-3.15,3.838-0.668,4.157,1.365c0.377,2.402-1.468,5.133-3.493,2.444c1.188,6.156-0.251,12.103,0.215,18.286
			c0.503,6.699,1.349,13.188,3.306,19.625c2.007,6.604,2.822,13.719,4.175,20.493c1.297,6.49,4.158,13.004,4.902,19.525
			c1.37-0.457,2.888-0.912,4.252-1.089c-0.655,1.511-1.95,3.768-3.964,3.487c2.282,18.143,6.806,37.197,14.088,54.013
			c-7.465-8.604-13.451-18.659-19.348-28.363c-3.327-5.473-6.406-11.079-9.523-16.671c-3.067-5.503-6.566-10.729-9.488-16.312
			c-2.767-5.288-4.835-10.928-7.661-16.159c-2.708-5.013-5.31-9.565-7.454-14.877c-2.127-5.264-4.735-10.457-7.516-15.404
			c-0.809-1.44-1.331-2.341-1.57-3.946c-0.254-1.707-0.331-3.383-0.675-5.085c-0.574-2.848-1.456-5.64-1.823-8.527
			c-0.422-3.313-0.015-6.633,0.117-9.952c0.137-3.44-0.211-6.819-0.577-10.235c-0.724-6.756-1.502-13.765-3.973-20.149
			c-1.101,0.644-2.886,1.025-3.802,1.678c-0.885,0.632-0.802,1.517-0.932,2.927c-0.231,2.51-0.272,5.032-0.36,7.549
			c-0.184,5.196,0.034,10.383-0.092,15.573c-0.122,5-0.968,9.857-0.095,14.841c0.865,4.935,2.699,9.495,2.745,14.563
			c0.105,11.379,0.464,22.701,3.778,33.698c3.514,11.659,5.017,23.826,10.018,35.052c5.547,12.45,13.048,23.727,20.698,34.955
			c-2.527-2.473-3.938-5.693-5.918-8.574c-2.335-3.396-4.886-6.586-7.063-10.099c-0.389,0.392-0.844,0.685-1.364,0.876
			c-0.553-1.35-1.074-1.718,0.405-2.43c-2.599-4.342-4.537-8.977-7.527-13.077c-1.13-1.549-5.605-10.366-8.038-9.055
			c-2.461,1.327,2.489,9.329,3.35,10.664c3.076,4.763,5.736,9.778,8.935,14.458c2.737,4.005,5.98,7.595,8.77,11.541
			c1.44,2.037,2.592,4.294,4.184,6.223c1.551,1.881,3.543,3.328,5.131,5.173c2.598,3.014,4.915,6.294,7.399,9.402
			c0.793,0.993,1.605,1.969,2.41,2.95c0.888,1.081,1.645,2.797,2.901,2.5c1.62-1.313,0.849-3.153,2.297-5.044
			c-1.13,1.474-0.436,4.212-1.967,5.009c-0.123,0.064-0.216,0.008-0.33,0.035c-0.179,0.145-0.253,0.313-0.5,0.443
			c8.42,10.519,17.537,20.285,24.25,32.061c-4.277-2.144-8.618-4.157-12.89-6.314c0.932,2.925,1.503,4.084,4.288,5.465
			c1.57,0.78,3.628,1.814,4.743,2.414c1.953,1.05,4.428,1.895,6.217,3.182c1.715,1.233,3.056,4.119,4.416,5.817
			c-2.263-1.066-4.649-1.808-6.726-3.236c-1.971-1.352-3.694-3.081-5.516-4.618c-3.161,3.981-5.583,0.586-9.602-0.093
			c8.761,6.889,15.923,15.517,25.035,22.012c-4.098-0.524-7.489-3.352-11.118-5.21c-4.221-2.161-8.65-3.812-12.883-5.922
			c-4.099-2.041-7.786-4.972-11.63-7.448c-4.109-2.646-8.338-5.14-12.345-7.934c-3.754-2.62-7.827-4.867-11.432-7.685
			c-3.652-2.858-6.866-6.276-10.203-9.484c-3.616-3.478-8.136-5.813-11.605-9.444c-1.753-1.835-3.409-3.776-5.094-5.672
			c-2.129,1.614-1.052,3.322-0.704,5.362c0.254,1.494,0.009,1.623,0.774,2.848c0.624,1.001,1.783,1.916,2.66,2.724
			c3.73,3.43,8.04,5.968,11.626,9.61c7.129,7.239,14.849,13.286,23.169,19.101c-3.526-1.638-7.017-3.316-10.492-5.06
			c-3.553-1.786-7.266-3.135-10.814-4.879c-3.352-1.648-6.184-4.275-9.414-6.162c-3.894-2.274-7.619-5.675-11.641-7.58
			c-1.293-0.613-1.989-0.623-3.267-1.704c-1.338-1.134-2.516-2.104-4.05-2.972c-0.6-0.34-1.121-0.45-1.658-0.947
			c-0.653-0.604-0.711-1.601-1.246-2.144c-1.077-1.095-3.093-1.945-4.403-2.815c-0.888-0.59-5.945-4.455-7.012-2.387
			c-1.083,2.098,4.13,5.84,5.485,6.925c3.101,2.483,6.618,4.374,9.731,6.875c3.629,2.914,7.627,5.417,11.68,7.699
			c2.901,1.632,5.918,3.005,8.695,4.852c3.543,2.355,6.904,3.809,10.766,5.503c13.445,5.898,25.537,14.993,39.272,20.321
			c3.668,1.421,7.443,2.368,11.087,3.905c3.797,1.6,7.64,3.71,11.511,5.056c3.804,1.325,7.662,1.218,11.391,2.91
			c2.282,1.037,4.5,1.803,6.949,2.382c0.789,0.186,1.576,0.368,2.368,0.542c2.182,0.479,2.552,0.115,2.196,2.367
			c-4.32-1.217-8.788-2.125-13.038-3.56c-4.117-1.39-7.415-2.35-11.812-2.598c1.932,0.923,1.319,5.681-1.186,5.161
			c-2.328-0.485-0.653-4.267-0.011-5.263c-2.91-0.293-5.511-1.512-8.234-2.5c-3.4-1.232-6.971-2.062-10.457-3.027
			c-3.596-0.995-7.274-1.396-10.802-2.642c-3.519-1.245-7.069-2.5-10.497-3.975c-12.63-5.43-25.414-10.146-37.648-16.494
			c-25.567-13.268-47.087-33.032-68.694-51.692c-4.882-4.218-9.491-8.51-13.993-13.133c-5.043-5.18-9.444-10.758-14.251-16.133
			c-3.946-4.416-8.341-8.378-11.976-13.077c-4.247-5.49-8.178-11.211-12.447-16.687c-4.124-5.291-7.939-10.899-12.456-15.867
			c-0.242-0.268-2.059-2.518-2.526-2.068c-0.569,0.548,1.381,3.575,1.631,4.041c6.071,11.316,13.77,22.223,21.615,32.384
			c4.717,6.112,10.595,11.116,15.545,17.013c5.054,6.019,10.441,11.542,16.012,17.089c5.702,5.676,12.099,10.787,18.238,15.987
			c6.518,5.521,12.969,11.118,19.79,16.266c-2.587-0.254-0.685,2.473-0.002,3.288c1.555,1.859,3.678,3.567,5.642,4.959
			c4.321,3.062,8.91,6.098,13.371,8.954c4.165,2.667,8.522,5.037,12.975,7.182c5.275,2.543,9.927,5.888,15.5,7.772
			c9.488,3.204,18.343,8.645,27.502,12.694c11.329,5.009,22.526,10.593,34.174,14.832c-4.247-0.832-8.302-0.503-12.574-0.158
			c-4.922,0.398-9.301-0.465-14.069-1.574c-10.599-2.465-21.388-3.114-32.13-4.479c-10.893-1.383-21.479-5.575-32.048-8.374
			c-8.32-2.201-16.65-4.75-24.777-7.601c-5.753-2.02-11.484-4.48-17.359-6.093c-2.908-0.798-5.892-1.381-8.699-2.514
			c-3.143-1.271-6.045-3.173-9.001-4.82c0.623,1.74-0.16,2.853-0.322,4.522c-0.16,1.658-0.441,1.123,0.714,2.116
			c0.577,0.496,1.536,0.821,2.212,1.175c3.527,1.843,7.094,3.02,10.947,4c7.158,1.818,14.034,4.84,20.892,7.555
			c6.713,2.657,14.03,5.947,21.081,7.514c2.208,0.491,3.805-0.611,6.02-0.813c2.021-0.186,2.931,1.202,4.537,2.593
			c2.631,2.279,4.005,0,5.303-2.689c1.234,0.68,3.27,1.35,4.26,2.339c1.091,1.093,1.808,3.499,2.523,4.882
			c-0.55,0.102-1.078,0.273-1.583,0.516c16.387,4.819,33.422,6.429,50.04,10.471c-8.846-0.03-17.547-2.327-26.26-3.648
			c-8.617-1.305-17.225-2.67-25.834-4.031c-0.132,0.756,0.472,3.248,0.948,3.689c0.598,0.553,2.931,0.552,3.624,0.684
			c4.205,0.803,8.406,1.626,12.607,2.451c8.598,1.691,17.147,3.618,25.756,5.246c8.108,1.532,16.446,1.332,24.576,2.915
			c3.846,0.748,7.327,1.604,11.276,1.31c1.674-0.127,3.346-0.348,5.027-0.342c0.793,0.003,1.712,0.251,2.491,0.153
			c0.666-0.083,1.378-0.738,2.217-0.806c0.098,2.046,3.255,1.607,5.066,1.638c2.286,0.041,4.587-0.084,6.866-0.255
			c3.873-0.292,8.094-0.706,11.667-2.351c-0.261,1.738-0.512,3.476-0.793,5.211c-0.361,2.24,0,2.944-2.281,3.263
			c-3.414,0.479-6.791,1.17-10.182,1.779c-6.458,1.162-13.162,2.214-19.711,2.668c-6.481,0.448-12.73,1.56-19.165,2.332
			c-6.793,0.816-13.672,0.506-20.499,0.549c-15.085,0.091-29.874-0.13-44.867-1.993c-11.615-1.442-23.228-3.783-34.653-6.321
			c-8.26-1.834-16.31-4.493-24.467-6.692c-8.506-2.295-16.194-5.821-24.396-8.956c-0.064,0.823-0.27,1.803-0.81,2.463
			c5.306,2.001,10.443,4.547,15.82,6.339c4.935,1.644,10.048,2.771,15.019,4.312c11.086,3.437,22.423,6.264,33.785,8.627
			c11.39,2.37,22.967,4.175,34.535,5.41c5.716,0.612,11.494,0.408,17.231,0.644c2.353,0.096,4.706,0.098,7.06,0.114
			c2.914,0.021,5.158-1.276,8.057-1.466c-0.509,0.596-1.097,1.098-1.764,1.508c6.149,0.036,12.297,0.4,18.437-0.096
			c5.639-0.453,11.132-1.789,16.786-2.142c11.939-0.746,23.847-3.178,35.139-7.155c-0.294,1.556-0.203,4.492-1.006,5.859
			c-0.581,0.989-2.67,2.01-3.594,2.802c-3.215,2.751-6.314,5.589-9.261,8.618c-5.592,5.748-13.491,10.035-20.248,14.292
			c-6.73,4.242-13.619,8.194-20.324,12.446c-2.714,1.721-5.881,2.344-8.831,3.539c-4.116,1.668-8.075,3.531-12.324,4.871
			c-6.968,2.201-14.034,3.609-20.932,6.108c-1.183,0.429-5.607,1.827-3.784,3.749c1.734,1.832,8.43-0.257,10.442-0.908
			c7.563-2.44,15.264-4.257,22.505-7.647c3.381-1.584,6.634-3.194,10.132-4.514c3.567-1.348,6.305-3.725,9.594-5.559
			c7.67-4.272,15.347-8.491,22.976-12.843c3.957-2.258,7.951-4.556,11.643-7.246c3.727-2.715,7.031-6.189,10.603-9.14
			c-3.483,23.106-2.891,47.766,0.497,70.867c1.761,12.009,4.146,23.959,6.215,35.919c1.102,6.382,2.321,12.743,3.638,19.084
			c0.133,0.646,0.324,2.278,0.706,2.734c0.63,0.755,1.939,0.708,2.63,1.831c0.932,1.512,0.878,4.208-1.57,3.695
			c0.582,2.63,0.723,7.153,2.151,9.406c1.141,1.798,5.82,1.106,5.482,4.321c-0.14,1.319-1.115,1.907-2.012,2.684
			c-1.589,1.378-1.476,1.546-0.979,3.639c0.797,3.352,1.612,6.702,2.47,10.04c3.536,13.749,7.801,27.326,12.041,40.869
			c8.469,27.055,17.654,53.888,25.061,81.262c3.364,12.426,7.812,24.573,10.547,37.163c3.043,14.014,4.04,28.483,5.296,42.74
			c1.179,13.37,1.909,26.763,1.011,40.174c-0.181,2.718,0.206,6.666-0.786,9.222c-0.932,2.406-3.69,5.22-5.241,7.367
			c-1.313,1.817-3.115,3.218-4.405,5.041c-1.655,2.336-1.679,4.743-2.11,7.474c-0.54,3.422-2.897,5.139-4.79,7.855
			c-1.794,2.576-3.108,5.717-4.443,8.552c-1.551,3.289-1.842,6.784-3.723,9.956c-1.923,3.24-3.913,6.392-6.053,9.49
			c-3.84,5.554-6.883,11.677-10.561,17.346c-1.851,2.852-4.059,5.535-5.294,8.719c-1.125,2.895-2.169,4.924-4.475,7.063
			c2.252,0.357,4.586,1.838,6.092,3.514c2.976-3.164,3.464-7.262,5.958-10.663c1.271-1.733,2.607-3.419,3.896-5.138
			c1.096-1.464,4.952-5.177,4.625-6.86c2.021-0.199,5.434-6.989,6.698-8.648c2.562-3.36,5.228-6.593,7.67-10.052
			c4.288-6.076,5.485-14.016,10.798-19.572c-3.677,13.963-9.128,27.564-14.823,40.813c1.185,0.238-1.119,3.412-1.551,4.112
			c-0.923,1.493-1.639,2.982-2.423,4.581c-1.763,3.589-3.65,7.145-5.743,10.552c-3.721,6.053-7.883,11.816-12.205,17.45
			c0.247-0.132,0.52-0.178,0.82-0.139c0.07,1.135,0.393,1.555-0.766,1.754c-0.053-0.536-0.072-1.072-0.058-1.61
			c-2.95,3.844-6.16,7.559-8.863,11.586c-0.911,1.353-1.076,2.612-2.567,2.607c-2.349-0.008-4.112-2.573-4.433-4.601
			c-0.781-4.912,2.935-10.751,5.296-14.797c0.49-0.843,0.941-1.697,1.385-2.563c0.351-0.714,0.71-1.425,1.078-2.131
			c0.859-0.756,0.775-1.315-0.254-1.676c-1.285-2.22-3.031-3.192-3.076-6.177c-2.583,2.678-4.262,6.17-6.421,9.185
			c-2.091,2.92-3.826,5.978-5.177,9.306c-2.284,5.623-3.024,11.962,0.88,17.052c4.229,5.515,12.805,7.163,19.044,4.356
			c2.633-1.185,4.93-3.265,6.034-5.966c0.656-1.604,1.393-7.279-1.805-6.903c13.168-11.84,22.685-26.988,29.646-43.14
			c7.27-16.876,13.783-34.484,16.804-52.66c0.772-4.651,0.823-9.776,1.965-14.328c0.955-3.813,3.233-7.954,2.021-12.032
			c-0.492-1.654-0.844-2.282-0.748-4.2c0.104-2.112,0.194-4.224,0.245-6.337c0.118-4.977,0.003-9.962-0.251-14.933
			c-0.97-19.009-3.086-38.308-6.253-57.074c-2.659-15.748-8.416-30.714-12.466-46.117c-4.864-18.501-10.354-36.836-15.863-55.154
			c-11.098-36.903-21.659-73.828-28.221-111.855c-1.743-10.104-3.129-20.262-4.818-30.373c-1.645-9.831-3.218-19.593-3.816-29.553
			c-1.239-20.617-0.623-41,3.114-61.324c3.023,1.245,6.045,2.272,9.187,3.178c1.378,0.398,1.708,0.37,2.469,1.268
			c1.06,1.25,1.462,2.548,2.817,3.709c4.103,3.516,6.034,8.708,10.1,12.439c5.54,5.084,10.002,11.16,15.419,16.424
			c4.739,4.605,10.073,8.347,14.514,13.144c1.947,2.105,4.364,3.744,6.464,5.696c2.365,2.199,4.443,4.908,6.94,6.918
			c2.042,1.644,5.294,4.103,7.83,4.774c3.393,0.898,2.778-1.895,1.153-3.805c-2.098-2.464-5.094-3.752-7.394-5.973
			c-2.458-2.375-4.956-4.605-7.693-6.671c-2.561-1.934-4.739-3.773-7.011-6.024c-1.843-1.824-4.23-2.797-6.095-4.581
			c-5.495-5.258-10.219-11.293-14.707-17.399c-2.108-2.867-4.679-5.147-6.842-7.911c-2.221-2.839-3.444-6.246-5.567-9.038
			c3.372-0.019,6.301,0.772,9.606,1.502c1.83,0.405,3.667,0.773,5.51,1.123c2.263,0.431,2.857,0.755,4.366,2.457
			c4.707,5.309,9.795,10.38,15.463,14.697c12.666,9.644,25.14,19.64,38.552,28.262c6.224,4.002,12.628,8.348,19.34,11.486
			c6.598,3.086,12.677,6.859,19.16,10.141c13.079,6.624,26.547,13.383,40.534,17.762c3.025,0.948,7.061,2.842,10.289,2.459
			c2.591-0.306,1.639-1.659-0.036-2.797c-2.911-1.976-6.532-3.197-9.811-4.403c-1.834-0.673-4.015-1.748-5.956-2.045
			c-1.889-0.288-2.444,0.76-4.14,0.815c-0.296-3.05-2.529-3.439-4.974-4.643c-2.802-1.383-5.66-2.581-8.542-3.783
			c-5.847-2.441-11.977-4.789-17.597-7.705c-5.39-2.795-10.464-5.869-16.042-8.304c-3.434-1.498-6.496-3.491-9.652-5.494
			c-11.316-7.183-22.036-15-32.267-23.66c-8.953-7.578-19.271-14.306-26.892-23.31c6.438,0.854,12.897,1.304,19.349,1.997
			c3.193,0.345,7.045,0.06,9.557,2.104c2.71,2.207,5.433,4.441,8.294,6.455c5.594,3.937,11.586,7.259,17.216,11.171
			c5.865,4.075,11.81,8.066,17.846,11.886c9.214,5.83,19.209,10.733,29.18,15.155c6.435,2.854,12.883,5.94,19.556,8.206
			c5.964,2.025,12.031,3.12,17.91,5.492c1.761,0.712,1.888,0.755,3.579,0.255c2.195-0.65,3.924-1.172,6.233-1.228
			c3.507-0.086,6.027,0.001,5.853,4.277c-0.002,0.032-0.474,1.943-0.356,2.115c0.236,0.345,3.427,0.85,3.865,0.96
			c1.067,0.268,4.102,1.664,4.99,1.285c0.543-0.232,1.561-2.111,1.472-2.715c-0.302-2.016-2.324-0.908-1-3.665
			c-4.601-1.001-9.315-1.757-13.81-3.177c-4.338-1.372-8.53-3.212-12.799-4.783c-6.132-2.253-12.575-3.131-18.618-5.696
			c-12.854-5.454-25.087-12.139-37.09-19.248c-1.754,4.313-6.812,2.746-6.819-1.676c-0.001-0.219,0.632-2.232,0.568-2.379
			c-0.221-0.514-2.551-1.805-3.018-2.133c-2.097-1.478-4.2-2.947-6.277-4.453c-4.063-2.945-8.021-6.023-12.041-9.027
			c-3.95-2.952-8.385-5.177-12.248-8.262c9.346-0.04,18.671,0.124,28.011-0.406c4.583-0.259,9.17-0.431,13.738-0.898
			c2.805-0.288,4.771-0.611,7.455,0.345c2.791,0.994,5.569,2.038,8.377,2.993c9.025,3.07,18.039,5.77,27.288,8.057
			c9.799,2.424,19.383,5.666,29.159,8.131c8.141,2.053,16.523,3.099,24.711,5.056c9.003,2.152,18.414,3.5,27.653,4.032
			c0.625,0.036,6.155,0.617,6.279-0.283c0.138-1.013-6.421-2.229-6.89-2.337c-8.684-2.004-17.486-3.504-26.119-5.724
			c-9.161-2.356-18.611-3.122-27.704-5.649c-2.816-0.783-5.599-1.676-8.43-2.406c-2.089-0.54-4.891-1.673-7.065-1.729
			c-1.695-0.043-1.164,0.025-2.611,0.91c-0.675,0.411-2.812,1.489-3.62,1.121c-1.782-0.812-0.249-2.712,0.739-3.461
			c-12.313-3.221-24.529-6.12-36.593-10.273c12.73-1.043,25.292-4.063,37.592-7.358c3.03-0.812,6.057-1.64,9.089-2.45
			c3.032-0.81,5.832-0.668,8.963-0.804c6.409-0.278,12.632-1.874,19.066-1.921c7.1-0.053,14.064,0.053,21.138-0.745
			c6.809-0.767,13.624-1.308,20.455-1.881c7-0.588,14.049-0.569,21.034-1.243c5.992-0.579,11.858-2.133,17.782-3.159
			c3.415-0.593,6.864-1.193,10.182-2.212c1.257-0.387,4.518-1.131,4.979-2.703C855.177,444.271,844.271,445.438,842.722,445.532z
			 M684.993,374.635c-2.205-0.665-2.184-2.539-2.224-4.38C685.139,370.83,685.193,372.663,684.993,374.635z M576.309,353.997
			c-0.276,0.129-0.568,0.211-0.872,0.242C575.214,352.027,576.452,351.537,576.309,353.997z M658.403,134.142
			c0.598,1.338-0.104,1.721-1.232,1.791C657.584,135.336,657.993,134.739,658.403,134.142z M434.885,427.586
			c-1.946,0.6-2.233-3.004,0.183-2.477C436.731,425.472,436.168,427.187,434.885,427.586z M476.449,433.997
			c-0.105-0.574-0.668-2.109-0.448-2.697c0.182-0.482,0.649-1.524,1.159-0.412C477.797,432.279,477.81,433.528,476.449,433.997z
			 M501.205,438.077c-0.9,1.527-2.265-0.066-3.028-0.302c-1.309-0.402-3.034-0.073-4.654-0.184
			c-3.297-0.225-6.515-1.223-9.814-1.525c4.956-0.375,9.307,0.241,14.148,1.217C496.003,432.613,503.628,433.985,501.205,438.077z
			 M502.05,426.544c-0.072-0.265-0.145-0.53-0.217-0.796c0.231,0.074,0.463,0.145,0.694,0.218
			C502.368,426.158,502.209,426.351,502.05,426.544z M509.264,427.823c0.668,0.027,1.333,0.088,1.995,0.183
			c1.857,0.254,3.604,0.949,5.35,1.6C514.026,429.299,511.738,428.607,509.264,427.823z M531.187,439.823
			c-2.014-0.785-4.443-0.845-6.564-0.948c-4.32-0.228-8.72-0.39-13.021-0.845c6.595-0.049,14.03-0.352,20.217-2.921
			C531.617,436.681,531.423,438.255,531.187,439.823z M555.516,1002.932c-0.976,1.353-2.253,2.224-3.874,2.633
			c1.493-0.948,2.889-2.018,4.253-3.145C555.769,1002.592,555.643,1002.762,555.516,1002.932z M593.074,930.726
			c0.324-1.837,2.094-0.387,2.19,0.911C594.38,932.139,592.781,932.377,593.074,930.726z M625.815,434.572
			c3.665,1.214,7.529,1.448,11.163,2.712c4.136,1.44,8.046,2.974,12.311,4.032c4.211,1.044,8.489,2.28,12.583,3.71
			c3.376,1.18,7.017,2.935,10.682,2.935c-2.171,0.561-3.836,1.404-6.052,1.081c-1.066-0.155-2.125-0.456-3.18-0.685
			c-0.668-0.143-1.336-0.288-2.006-0.433c-0.617-0.364-0.927-0.172-0.929,0.574c-0.781,0.215-0.842,1.188-1.943,0.536
			c-0.591-0.351-0.414-1.183-0.744-1.523c-1.104-1.136-4.204-1.151-5.983-1.367c-8.783-1.066-17.261-2.926-25.877-4.935
			c1.093,0.294,1.601,5.199,2.398,6.509c0.465,0.766,1.018,1.472,1.501,2.224c1.002,1.557,1.319,1.595,3.182,1.961
			c6.218,1.223,12.324,1.995,18.635,2.57c-2.103,0.421-4.235,0.761-6.306,1.328c-1.29,0.353-3.153,1.536-4.455,1.56
			c-1.597,0.031-4.06-1.615-5.557-2.19c-1.451-0.559-3.051-1.057-4.296-1.412c-3.348-0.955-7.466-1.722-9.779-4.585
			c-2.816-3.483-0.325-8.683,4.399-8.032c-4.707-1.109-9.146-3.037-13.804-4.307c-4.418-1.204-8.868-1.462-13.416-1.734
			c-3.736-0.223-7.261-0.805-10.869-1.808c-4.814-1.338-8.803-4.088-13.017-6.723c8.401,1.059,16.471,2.142,24.973,1.613
			c4.7-0.293,8.493,0.336,12.894,1.88C616.799,431.636,621.311,433.09,625.815,434.572z M594.319,444.745
			c3.581,0.288,6.847-0.184,10.284,0.503c3.241,0.646,6.283,2.883,9.335,4.104c-2.873,0.27-5.965,1.106-8.719,1.996
			c-0.43,0.367-0.797,0.355-1.102-0.034c-1.306,2.169-2.895,0.387-4.104-0.661c-0.62-0.538-1.239-1.075-1.858-1.613
			c-0.522-0.875-1.225-1.014-2.079-0.533c-1.648,0.685-3.787,0.922-5.302,1.29c1.576-0.384,3.546-1.229,5.164-1.255
			c0.051-0.033,0.088-0.008,0.138-0.036c0.758-0.315,1.44-0.697,1.861-1.28C596.697,446.443,595.487,445.632,594.319,444.745z
			 M544.661,430.94c0.415-2.505,0.854-5.005,1.343-7.497c2.316,0.475,5.738,0.417,7.876,1.376c2.234,1.002,4.375,3.204,6.408,4.575
			c-1.709-0.032-3.415,0.031-5.119,0.128C551.674,429.648,548.037,429.965,544.661,430.94z M550.122,435.695
			c0.498,1.502-6.211,6.602-7.457,7.85c0.557-3.131,0.99-6.281,1.484-9.422C546.059,434.89,548.11,435.297,550.122,435.695z
			 M556.658,415.443c-2.255-1.571-4.471-3.216-6.813-4.658c2.6-1.338,8.034,0.073,11.029,0.417c3.021,0.347,7.26,0.092,9.684,1.604
			c7.391,4.612,16.136,6.706,24.075,10.148c-5.156-0.084-10.617-0.622-15.652-1.733c-4.728-1.043-8.983-0.645-13.75-0.802
			C562.403,420.368,558.938,417.032,556.658,415.443z M576.229,400.55c2.922,0.552,6.392,3.019,9.186,4.172
			c-3.405,0.154-6.553-0.03-9.933-0.317c-1.334-0.132-2.607-0.011-3.916,0.236c-1.921,0.363-2.242-0.03-4.015-0.816
			C569.815,402.843,573.959,400.121,576.229,400.55z M575.499,398.354c0.674-1.442,1.575-4.126,3.616-2.842
			c0.452,0.299,0.888,0.619,1.308,0.961C578.782,397.1,577.132,397.707,575.499,398.354z M589.448,385.745
			c0.022,0.242-0.003,0.263-0.205,0.118c0.304-0.092,0.354-0.313,0.153-0.666C589.971,385.279,589.989,385.462,589.448,385.745z
			 M590.62,388.082c0.278,0.417,0.598,0.84,0.958,1.211c0.049,0.047,0.09,0.106,0.142,0.151c0.405,0.378,0.873,0.676,1.448,0.766
			c-0.55-0.085-1.019-0.387-1.448-0.766c-0.051-0.048-0.093-0.1-0.142-0.151c-0.963-0.93-1.677-2.335-2.263-3.309
			C589.739,386.687,590.167,387.395,590.62,388.082z M580.701,397.759c2.513-1.306,3.512-1.36,6.298-0.722
			c2.5,0.573,4.968,1.266,7.438,1.965c4.809,1.362,9.683,2.514,14.544,3.676c-4.807,0.513-9.728,0.516-14.557,0.787
			C590.503,403.945,584.158,399.474,580.701,397.759z M562.933,398.219c-1.097,0.419-3.551,1.629-4.724,1.422
			c-0.561-0.098-3.069-1.956-3.214-2.288c-0.592-1.362,2.098-5.278,2.893-6.846c3.23,2.457,6.686,4.132,10.378,5.754
			C566.487,396.915,564.711,397.566,562.933,398.219z M635.829,408.658c10.329,2.308,21.6,3.115,32.154,4.114
			c13.428,1.272,26.919,2.288,40.394,2.848c-8.713,2.016-17.454,3.333-26.301,4.704c-4.078,0.632-8.086,1.674-12.21,1.993
			c-4.475,0.346-9.005,1.057-13.443,1.353c-3.948,0.263-9.117-2.012-12.908-3.245c-4.326-1.407-8.726-2.582-13.086-3.884
			c-4.341-1.297-8.654-2.629-12.957-4.049c-4.065-1.343-8.319-2.174-12.337-3.588c-0.419,1.102-1.14,2.151-1.867,3.067
			c2.937,1.114,6.107,1.4,9.07,2.43c2.345,0.815,4.668,1.716,6.999,2.568c7.334,2.68,14.853,4.901,22.144,7.684
			c-6.266,0.072-12.538,0.002-18.798-0.269c-5.429-0.234-12.55,0.047-17.631-1.827c-2.471-0.912-4.822-2.367-7.188-3.521
			c-2.061-1.006-3.343-0.096-5.251-1.874c-0.697-0.649-0.767-1.092-1.905-1.619c-1.298-0.6-2.608-1.079-3.963-1.536
			c-2.594-0.87-4.973-1.99-7.408-3.225c1.51,0.1,3.014-0.079,4.518-0.215c-1.174-2.784,2.106-1.753,3.174-1.156
			c0.068,0.826,0.463,1.077,1.184,0.754c0.268-0.026,0.536-0.052,0.805-0.08c1.42,0.031,2.986-0.677,4.349-1.009
			c0.812-0.196,1.627-0.331,2.444-0.488c0.533,0.473,1.023,0.423,1.469-0.15c0.365-0.203,0.729-0.408,1.095-0.612
			c2.37-1.217,4.185-2.065,6.469-0.93c0.007,0.675,0.287,0.902,0.838,0.68c0.544-0.047,1.089-0.095,1.633-0.145
			c1.368-0.14,2.718-0.336,4.076-0.557c2.648-0.429,5.313-1.091,7.974-1.404C624.51,404.866,630.774,407.569,635.829,408.658z
			 M656.953,397.671c0.464-0.511,0.964-0.97,1.493-1.387C657.916,396.701,657.417,397.159,656.953,397.671z M622.962,390.054
			c4.497,0.188,8.97,0.806,13.469,0.933c4.183,0.117,8.273-0.576,12.419-0.975c5.656-0.544,11.481-0.091,17.148-0.075
			c-3.669,1.217-7.608,1.753-11.337,2.843c-1.821,0.533-4.005,1.591-5.868,1.786c-1.821,0.19-4.095-0.496-5.933-0.724
			c-4.764-0.588-9.507-1.329-14.239-2.129c-4.008-0.678-8.183-0.451-12.09-1.643C618.674,390.018,620.819,389.983,622.962,390.054z
			 M613.936,393.016c4.428,1.272,8.795,1.183,13.283,1.966c3.688,0.642,7.355,1.416,11.035,2.108
			c-0.624,0.117-1.238,0.273-1.842,0.468c-2.599,0.849-4.973,1.946-7.682,2.418c-4.376,0.762-9.508,2.31-13.861,1.255
			c-8.589-2.08-17.005-4.782-25.558-6.971c2.074-0.632,4.195-1.225,6.171-2.129c1.635-0.748,3.033-2.047,4.78-2.088
			c1.904-0.045,4.326,0.849,6.213,1.187C609.012,391.685,611.456,392.302,613.936,393.016z M591.764,363.342
			c4.618-2.344,9.597-3.85,14.177-6.293c2.943-1.57,5.858-3.029,9.011-4.122c9.74-3.381,19.688-6.056,29.772-8.189
			c2.6-0.551,5.195-1.053,7.825-1.45c2.532-0.38,5.843-0.331,8.226-1.219c0.713-0.266,0.736-1,1.598-1.164
			c1.161-0.219,0.98,0.517,1.941,0.675c2.156,0.35,5.352-0.63,7.495-0.974c10.241-1.644,19.967-3.234,30.397-3.142
			c-4.128,2.097-8.749,3.179-12.747,5.458c-4.332,2.469-7.091,6.245-11.974,7.863c-4.405,1.46-8.446,3.174-12.654,5.143
			c-1.961,0.917-3.976,1.733-5.845,2.827c-1.965,1.15-3.566,2.533-5.742,3.103c-5.284,1.387-10.773,1.484-16.19,1.708
			c-5.455,0.225-10.886,0.832-16.342,1.07c-10.737,0.467-21.54,0.31-32.285,0.477C589.524,364.496,590.635,363.899,591.764,363.342z
			 M581.125,369.526c1.266-0.763,2.201-1.493,3.621-1.621c0.867-0.078,1.854,0.138,2.718,0.187c2.656,0.151,5.284,0.172,7.942,0.056
			c5.41-0.236,10.802-0.013,16.211-0.183c11.074-0.346,22.304-1.236,33.324-2.335c-2.8,1.077-5.613,2.086-8.456,3.047
			c-2.704,0.914-5.39,2.335-8.198,2.665c-5.361,0.626-10.801-0.052-16.179,0.626c-4.877,0.615-9.791-0.516-14.699-0.553
			c-5.688-0.042-11.374-0.476-16.976-1.472C580.663,369.805,580.893,369.666,581.125,369.526z M575.733,374.254
			c2.148,0.051,4.228,0.417,6.357,0.68c5.273,0.655,10.697,0.564,15.995,0.347c4.569-0.186,9.099,0.776,13.644,0.223
			c2.883-0.349,5.558-0.544,8.449-0.475c-2.61,1.067-5.215,2.142-7.832,3.193c-3.497,1.399-7.098,2.65-10.533,4.192
			c-3.171,1.421-7.857,0.789-11.339,0.141c-3.351-0.623-6.513-2.547-9.878-3.381c-3.494-0.868-6.968-2.022-10.497-2.726
			C572.054,375.18,573.329,374.196,575.733,374.254z M578.541,381.625c-0.245-0.121-0.489-0.241-0.732-0.362
			c0.137-0.147,0.482-0.413,0.677-0.51C578.502,381.023,578.572,381.36,578.541,381.625z M569.805,380.429
			c-1.157,0.005-4.644,0.574-4.625-0.527C565.225,377.285,569.076,380.07,569.805,380.429z M562.431,328.461
			c0.532-6.852,1.406-13.67,1.974-20.518c0.816,2.79,1.714,5.557,2.527,8.348c0.714,2.34,1.401,4.719,2.293,7.001
			c0.903,2.316-0.169,4.18-0.826,6.548c-1.145,4.138-2.678,8.394-3.047,12.696c1.929-0.295,4.165,5.167,4.427,6.774
			c-2.231-0.041-4.311,1.041-6.211,2.081c0.034-1.45,0.068-2.9,0.102-4.352c-0.889,1.028-1.833,2.018-2.664,3.095
			C560.403,342.862,561.869,335.69,562.431,328.461z M572.906,387.928c4.528,0.109,8.982,0.83,13.476,1.33
			c-1.232,0.336-2.462,0.69-3.665,1.119c-1.862,0.667-3.357,1.648-5.298,1.524c-1.994-0.128-4.082-0.746-6.034-1.145
			c-3.86-0.788-7.178-1.656-10.789-3.157C564.679,388.041,568.809,387.827,572.906,387.928z M554.81,302.781
			c0.273-4.159,0.872-8.293,1.272-12.439c0.395-4.097,0.24-7.976,0.993-12.062c0.762,4.864,1.895,9.527,3.101,14.29
			c0.748,2.814-0.194,5.013-0.749,7.815c-0.627,3.171-0.976,6.387-1.366,9.594c-0.699,5.756-1.72,11.465-2.428,17.22
			C553.971,319.577,554.299,310.536,554.81,302.781z M533.968,289.615c-0.573-7.155-0.821-14.445-0.445-21.619
			c0.283-9.531,1.557-18.937,2.994-28.358c0.763-5.011,0.646-10.016,1.321-15.014c0.643-4.77,1.68-9.664,2.927-14.312
			c1.202-4.474,3.585-8.524,4.426-13.111c0.722-3.945,0.607-7.951,2.389-11.634c1.722-3.553,4.131-6.802,5.998-10.294
			c1.922-3.594,4.126-7.012,6.334-10.434c-5.644,21.534-8.037,44.355-7.977,66.592c0.007,2.425,0.479,4.401-0.912,6.39
			c-1.339,1.916-2.729,3.761-3.927,5.772c-2.51,4.214-4.688,8.962-6.181,13.63C537.587,267.632,534.837,278.701,533.968,289.615z
			 M536.192,300.035c0.133-2.925,0.344-5.839,0.644-8.751c0.637-6.164,1.785-12.266,3.351-18.264
			c2.743-10.514,5.889-20.988,12.187-29.985c0.283,5.259,0.721,10.516,1.359,15.744c0.622,5.104,0.007,8.837-1.453,13.685
			c-1.271,4.222-1.702,9.135-1.459,13.519c0.292,5.275-0.395,10.578-0.564,15.856c-0.289,9.13,0.147,19.639,2.658,28.457
			c1.432,5.033,0.645,9.432,0.456,14.536c-0.191,5.186,0.644,10.399,1.304,15.528c-3.954-8.113-6.81-16.973-9.976-25.42
			c-1.54-4.11-3.313-8.099-4.398-12.37c-1.111-4.378-1.168-8.978-2.533-13.296C536.762,305.96,536.035,303.518,536.192,300.035z
			 M542.728,362.252c-1.201-7.068-2.815-14.134-3.725-21.242c-0.208-1.505-0.348-3.018-0.482-4.533
			c2.474,7.546,4.835,15.146,7.553,22.608c1.329,3.647,3.073,6.806,5.243,10.007c0.451,0.666,1.44,1.753,1.701,2.521
			c0.377,1.11,0.283,0.887-0.189,2.114c-0.708,1.844-2.016,3.604-2.951,5.339c-1.337-2.748-3.267-5.139-4.591-7.894
			C543.86,368.198,543.275,365.478,542.728,362.252z M546.495,385.544c0.466-0.424,0.43-0.68-0.106-0.773
			C546.925,384.863,546.961,385.12,546.495,385.544z M545.879,381.618c-0.036-0.191-0.075-0.383-0.113-0.573
			C545.804,381.235,545.843,381.427,545.879,381.618z M546.327,417.082c1.125-1.02,0.547,0.227,1.45-1.53
			c0.478-0.932,0.593-2.269,0.907-3.269c1.179,1.275,2.481,2.433,3.797,3.561c0.83,0.709,3.165,2.901,3.488,2.952
			c-1.268-0.197-2.554-0.269-3.832-0.367c1.235,0.837,2.159,2.041,2.782,3.384c-4.008,1.411-8.371,1.029-12.273-0.541
			C543.768,419.649,544.887,418.384,546.327,417.082z M504.539,334.12c-4.044-11.738-6.973-23.995-9.049-36.223
			c2.368,6.426,4.843,12.52,8.337,18.416c3.422,5.777,4.601,12.524,7.6,18.516c3.096,6.185,6.094,12.39,8.981,18.677
			c2.709,5.903,4.511,11.887,8.146,17.343c-4.622-5.835-9.727-11.29-14.328-17.137C509.669,347.921,507.002,341.052,504.539,334.12z
			 M509.138,392.368c0.313-0.326,0.627-0.651,0.939-0.976c0.197,0.525,0.395,1.048,0.591,1.571
			C510.159,392.763,509.649,392.565,509.138,392.368z M512.99,408.861c-0.645-0.535-1.291-1.068-1.937-1.602
			c0.838,0.634,1.639,1.313,2.447,1.985C513.331,409.116,513.16,408.988,512.99,408.861z M531.959,418.908
			c-0.837,1.308-6.583-1.722-7.797-2.306c-2.999-1.442-5.364-3.475-8.053-5.444c3.064,1.948,6.545,3.221,9.489,5.285
			c2.606,1.825,3.993,1.134,6.887,1.692C532.308,418.393,532.134,418.651,531.959,418.908z M534.143,420.456
			c-0.472-0.184-0.946-0.367-1.416-0.549c0.212-0.487,0.395-1.227,0.073-1.711c0.588,0.124,1.18,0.16,1.776,0.11
			C534.426,419.022,534.282,419.738,534.143,420.456z M534.114,414.195c0.347,0.337,0.763,0.545,1.242,0.625
			c-0.16,0.684-0.317,1.368-0.468,2.054c-1.236-1.702-3.305-2.987-5.019-4.123c-1.982-1.286-2.825-3.901-4.064-5.911
			c-1.462-2.375-3.019-4.666-4.763-6.844c4.493,1.67,8.03,5.949,12.326,8.291c0.681,0.372,2.302,0.835,2.27,1.907
			c-0.015,0.486-1.628,1.394-1.829,2.151C533.576,413.22,533.861,413.466,534.114,414.195z M537.813,405.944
			c-0.323-0.334-0.653-0.659-0.993-0.975c1.325,0.079,0.874-0.438,0.402-1.104c-0.351-0.495-1.172-0.613-1.606-0.995
			c-0.659-0.579-1.001-1.162-1.438-1.958c-1.748-3.175-3.464-6.347-4.986-9.639c-3.045-6.583-6.149-13.137-9.188-19.723
			c-0.015,1.702-0.876,3.544-0.849,5.099c0.027,1.634,2.059,4.564,2.727,6.034c2.082,4.577,3.948,9.254,6.179,13.76
			c-2.174-2.629-4.08-5.431-6.305-8.037c-1.194-1.401-2.384-2.778-3.648-4.116c-0.642-0.681-1.324-1.329-1.92-2.05
			c-0.828-1.005-0.613-1.515-1.921-0.86c-1.362-3.318-2.042-5.122-4.673-7.722c-1.514-1.498-2.578-3.004-3.719-4.779
			c-3.585-5.583-7.117-11.296-9.898-17.331c-1.326-2.881-2.588-5.83-4.054-8.643c-1.276-2.448-3.006-4.535-4.16-7.068
			c-1.234-2.707-2.272-5.244-3.023-8.116c-0.827-3.163-3.047-5.175-4.268-8.089c-1.036-2.475-1.251-5.184-2.364-7.669
			c-1.227-2.741-2.495-5.767-4.558-8.008c-1.21-1.316-2.254-2.069-2.846-0.012c-0.781,2.709,0.97,7.198,1.715,9.804
			c0.66,2.307,1.093,4.643,1.721,6.951c0.828,3.052,3.171,4.92,4.465,7.685c1.164,2.486,1.638,5.166,2.904,7.644
			c1.514,2.963,3.173,5.46,5.055,8.183c4.273,6.179,7.201,13.286,11.418,19.56c2.137,3.178,4.261,6.449,6.595,9.483
			c2.423,3.154,5.074,5.595,7.149,9.061c-2.805-2.914-6.157-5.29-9.018-8.126c-2.451-2.431-4.286-5.755-6.483-8.444
			c-2.718-3.324-5.495-6.571-7.839-10.178c-2.408-3.706-4.479-7.694-7.34-11.086c-2.757-3.33-5.931-6.229-8.364-9.829
			c-1.85-2.735-3.615-5.53-5.361-8.331c-5.779-9.277-11.107-18.976-14.919-29.245c-3.71-10-4.577-20.576-7.192-30.823
			c-2.395-9.389-3.781-19.477-3.156-29.192c2.192,6.086,4.542,12.206,7.061,18.163c2.123,5.02,5.588,9.268,7.793,14.247
			c4.931,11.128,11.672,21.104,17.861,31.542c6.798,11.464,14.106,22.482,21.789,33.373c3.501,4.959,8.57,9.427,11.365,14.798
			c1.324,2.545,1.924,5.695,2.951,8.387c0.526,1.378,0.988,3.492,1.895,4.658c0.051,1.068,0.545,1.436,1.483,1.102
			c0.647-0.021,1.294,0.002,1.939,0.07c-1.056-2.243-2.048-4.507-2.973-6.806c2.427,3.062,4.884,6.104,7.321,9.158
			c0.184,0.233,0.873,0.233,1.109,0.547c-0.323,0.449-0.253,0.822,0.211,1.123c0.266,0.334,0.531,0.668,0.799,1
			c1.401,1.755,2.813,3.5,4.152,5.303c4.746,6.397,10.076,12.389,15.882,17.856c-0.725-0.239-3.883-1.527-4.638-0.562
			c-0.86,1.101,1.735,2.849,2.203,3.478c1.149,1.547,1.083,1.9,0.292,3.816C539.518,400.816,538.655,403.378,537.813,405.944z
			 M540.348,456.858c0.173-1.012,0.36-2.022,0.56-3.029c2.59,0.968,5.448,1.717,6.56,4.227
			C545.111,457.636,542.728,457.122,540.348,456.858z M548.263,450.063c-0.887-0.053-1.67-0.432-2.45-0.815
			c2.588-2.512,5.038-5.617,6.887-8.706c2.651,4.161,5.621,8.082,8.695,11.937c-2.057-0.366-4.039-0.618-5.981-1.395
			C552.654,449.983,551.122,450.307,548.263,450.063z M557.097,460.526c-2.187-0.67-2.881-2.408-4.307-4.185
			c2.943,0.862,5.585,1.63,8.701,1.793c1.024,0.054,2.673-0.457,3.567-0.187c1.08,0.327,2.117,2.25,2.95,3.238
			C564.315,460.74,560.748,461.542,557.097,460.526z M569.777,452.961c-2.165-2.825-4.56-5.4-7.016-7.975
			c-0.981-1.029-8.338-7.598-7.985-8.4c6.401,1.066,12.761,2.35,19.146,3.51c-1.583-2.04,0.846-1.237,2.591-1.07
			c1.677,0.16,3.35,0.544,4.888,1.242c3.335,1.512,5.762,4.379,7.284,7.657c-2.116-0.509-3.912-1.277-5.986-0.256
			c2.375,2.428,4.887,4.608,7.738,6.467C583.433,454.391,576.698,454.006,569.777,452.961z M578.401,462.152
			c-1.566-1.038-3.063-2.463-4.352-3.835c5.143,0.467,10.333-0.064,15.458-0.542c1.303-0.12,2.623-0.341,3.924-0.43
			c1.447-0.099,0.924-0.449,2.572,0.213c2.327,0.936,4.649,3.228,6.383,4.955c-5.759,0.094-11.602,0.785-17.328,0.747
			C582.731,463.267,580.307,463.416,578.401,462.152z M604.058,471.184c-6.247-0.709-12.457-1.423-18.677-2.369
			c4.975-0.212,9.958-1.027,14.952-1.315c1.987-0.115,5.148-0.796,6.826,0.046c1.613,0.811,3.452,3.385,4.88,4.582
			C609.38,471.794,606.723,471.448,604.058,471.184z M614.592,461.905c-2.149-2.355-4.163-4.834-6.421-7.087
			c1.25-0.178,2.492-0.368,3.736-0.585c-0.518-0.208-1.518-2.939-1.793-3.465c0.599,1.154,1.195,2.311,1.793,3.465
			c0.653,0.262,2.866-0.303,3.64-0.356c2.254-0.156,4.382-1.353,6.425-0.949c2.756,0.548,5.738,2.11,8.432,3.027
			c2.303,0.784,4.569,1.644,6.817,2.573C629.887,460.253,622.087,461.196,614.592,461.905z M666.565,471.166
			c-7.092,0.52-14.16,1.141-21.27,1.299c-5.062,0.113-10.108,0.179-15.168,0.147c-2.805-0.018-3.618,0.016-5.753-1.812
			c-1.966-1.684-3.91-3.393-5.854-5.105c6.852-1.115,14.055-2.129,20.695-4.11c0.734-0.219,2.248-1.063,2.999-1.074
			c1.018-0.014,2.571,1.011,3.573,1.405c2.856,1.123,5.719,2.222,8.589,3.309c5.07,1.922,10.159,3.783,15.26,5.623
			C668.614,470.969,667.59,471.08,666.565,471.166z M716.793,462.35c-6.347,1.493-12.467,3.544-18.919,4.607
			c-6.688,1.103-14.002,3.157-20.815,2.969c-3.298-0.089-7.139-2.107-10.301-3.176c-1.774-0.6-3.544-1.208-5.309-1.834
			c-5.214-1.846-10.425-3.69-15.6-5.645c3.557-0.917,7.243-1.178,10.788-2.156c1.817-0.501,3.227-1.181,5.076-0.994
			c1.855,0.187,3.714,0.673,5.553,0.981c7.495,1.257,15,2.644,22.568,3.357c9.49,0.894,19.017,1.418,28.548,1.491
			C717.857,462.103,717.328,462.236,716.793,462.35z"/>
		<path d="M611.906,454.233c-0.598-1.155-1.193-2.311-1.793-3.465C610.388,451.294,611.388,454.025,611.906,454.233z"/>
		<path d="M805.222,545.67c-6.592-1.025-13.236-1.391-19.817-2.404c-6.269-0.963-12.314-2.965-18.547-4.116
			c0.612,1.706,1.07,3.482,1.227,5.29c-0.659,0.012-4.024,0.425-4.309,0.134c-1.425-1.474-1.925-2.216-4.084-2.238
			c-2.804-0.03-5.609-0.058-8.412-0.088c7.778,2.011,15.623,3.856,23.334,6.101c7.372,2.146,14.506,2.793,22.118,3.325
			c3.394,0.238,6.744,0.578,10.15,0.549c2.142-0.019,5.683,0.263,7.573-1.036C819.003,548.058,806.51,545.89,805.222,545.67z"/>
		<path d="M300.491,365.685c-2.291-1.263-3.408-1.725-6.013-0.951c-2.031,0.604-3.922,1.621-5.566,2.956
			c3.616,2.509,7.742,4.194,11.445,6.568c3.484,2.234,6.755,4.773,10.327,6.879c6.851,4.039,14.045,7.486,21.363,10.579
			c0.862-1.508,1.484-4.515,3.338-5.139c-8.41-3.952-16.712-8.342-24.306-13.73C307.505,370.315,304.176,367.718,300.491,365.685z"
			/>
		<path d="M278.412,355.262c-3.105,2.049,4.263,7.54,5.524,8.583c0.832,0.685,1.675,1.357,2.527,2.016
			c0.975-2.272,2.903-3.844,4.933-5.141C289.051,359.232,281.428,353.269,278.412,355.262z"/>
		<path d="M820.331,244.763c-4.83,0.187-9.65,0.501-14.47,0.867c-5.904,0.384-11.798,0.415-17.628,1.542
			c-6.993,1.351-13.849,2.232-20.895,3.242c0.406,0.837,0.702,2.184,1.295,2.907c0.954,1.159,0.631,0.953,2.257,0.795
			c2.52-0.246,5.052-0.383,7.565-0.699c4.212-0.528,8.304-1.667,12.496-2.302c9.195-1.392,18.624-1.531,27.87-2.738
			c4.07-0.53,8.259-1.014,12.23-2.079c1.706-0.458,3.315-0.871,0.912-1.513C828.466,243.85,823.901,244.627,820.331,244.763z"/>
		<path d="M762.924,313.728c-8.276-1.153-16.064-2.142-24.439-1.533c-8.261,0.602-16.546,0.03-24.834,0.602
			c-9.506,0.656-18.964,2.206-28.435,3.278c0.843,2.143-4.277,2.105-5.206,1.778c-1.586-0.561,0.477-0.621-1.737-0.993
			c-1.344-0.225-3.321,0.357-4.68,0.519c-6.978,0.831-13.947,1.966-20.851,3.276c-6.835,1.297-13.664,2.764-20.377,4.6
			c-6.296,1.723-12.376,4.342-18.561,6.435c1.521-0.109,2.232,1.184,3.464,1.391c0.482,0.081,2.208-0.758,2.546-0.878
			c2.731-0.962,5.404-2.07,8.125-3.062c2.814-1.027,5.687-1.776,8.595-2.471c11.678-2.792,23.535-4.447,35.433-5.958
			c20.09-2.195,40.177-4.506,60.386-4.109c4.375,0.085,8.716-0.439,13.086-0.444c4.701-0.004,9.363,0.951,14.031,1.397
			c4.586,0.44,9.165,0.945,13.745,1.451c2.613,0.288,9.876,2.258,11.919,0.352c-1.98-2.163-7.372-2.759-10.058-3.375
			C771.056,315.062,767.008,314.296,762.924,313.728z"/>
		<path d="M805.716,404.638c-2.631,0.394-5.175,1.363-7.748,1.406c-2.661,0.045-5.361,0.429-8.052,0.804
			c-5.033,0.701-10.119,0.777-15.161,1.4c-7.147,0.886-13.902,2.362-21.143,2.508c-7.93,0.162-15.905,0.608-23.82,1.118
			c-0.138,1.254-0.276,2.508-0.414,3.763c6.578-0.36,13.195-0.542,19.782-0.691c0.911-0.021,2.094,0.171,2.993-0.043
			c0.627-0.151,0.958-0.693,1.656-0.761c1.307-0.126,0.667,0.626,1.425,0.744c3.058,0.479,6.694-0.2,9.724-0.629
			c12.126-1.713,24.417-2.573,36.365-5.386c2.952-0.695,5.879-1.488,8.763-2.429c0.868-0.284,4.792-1.097,5.192-2.118
			C815.812,402.962,806.849,404.468,805.716,404.638z"/>
		<path d="M286.159,410.477c-4.63-2.572-8.899-5.698-13.474-8.362c-0.825-0.48-5.351-3.535-4.799-1.227
			c0.245,1.021,2.582,2.514,3.323,3.119c2.028,1.653,4.144,3.202,6.26,4.739c4.263,3.095,8.88,5.496,13.391,8.192
			c9.02,5.391,18.022,10.462,27.656,14.702c0.41-2.121,2.578-0.598,3.333-1.547c-2.506-1.121-4.988-2.295-7.475-3.461
			C304.464,422.274,295.592,415.717,286.159,410.477z"/>
		<path d="M405.649,216.654c-0.355,4.365,0.394,8.936,0.76,13.283c0.461,3.419,1.001,6.824,1.542,10.23
			c0.166,1.043,0.117,2.58,0.519,3.535c0.603,1.431,0.146,0.853,1.851,1.15c0.95,0.166,1.876,0.187,2.828,0.418
			c-1.682-9.294-2.988-19.054-5.812-28.075C406.711,215.195,405.903,213.542,405.649,216.654z"/>
		<path d="M466.618,361.764c-4.547-5.334-8.346-11.247-12.236-17.06c-11.174-16.695-19.881-35.266-27.647-53.756
			c-4.582-10.916-7.247-22.492-10.884-33.716c-0.821,0.653-2.188,1.379-2.844,2.153c-1.119,1.321-0.573,0.106-0.342,1.779
			c0.31,2.242,1.775,4.64,2.393,6.881c1.479,5.362,2.936,10.577,4.849,15.81c3.836,10.488,8.985,20.431,13.781,30.506
			c8.389,17.63,19.147,35.191,32.012,49.961c-3.217-3.316-6.499-6.532-9.608-9.95c-2.116-2.325-4.116-4.818-6.347-7.03
			c-1.968-1.951-4.042-3.641-5.624-5.943c-3.434-5.002-7.01-9.971-10.296-15.072c-3.226-5.005-5.395-10.521-8.459-15.582
			c-1.479-2.441-3.108-4.761-4.538-7.236c-0.846-1.465-2.5-5.331-4.382-5.788c-3.903-0.948,0.98,9.232,1.67,10.52
			c5.271,9.824,11.084,19.316,18.073,28.028c2.292,2.854,4.008,6.156,6.382,8.933c1.963,2.296,4.409,4.117,6.383,6.409
			c4.409,5.12,8.797,10.235,13.331,15.246c-7.011-4.283-14.014-8.252-20.706-13.029c-9.258-6.608-18.094-13.779-26.715-21.19
			c-2.048-1.761-3.99-3.623-5.949-5.48c-1.927-1.825-2.945-3.767-4.156-6.14c-2.325-4.556-4.605-9.195-6.649-13.885
			c-2.046-4.691-4.589-9.015-6.77-13.622c-2.219-4.686-3.788-9.728-5.26-14.69c-1.31-4.414-1.512-8.881-2.38-13.367
			c-0.845-4.364-3.138-8.208-4.226-12.487c-1.198-4.712-0.247-9.678-0.289-14.47c-0.039-4.579,0.231-9.055,0.774-13.605
			c0.253-2.128,0.574-4.238,0.881-6.358c0.139-0.964,0.797-3.186,0.147-4.092c-2.119-2.963-6.736,5.119-7.445,6.624
			c-3.942,8.362-4.731,18.571-4.607,27.726c0.07,5.257,2.01,9.752,4.008,14.518c1.877,4.47,2.026,9.2,3.149,13.86
			c1.459,6.046,3.871,12.082,6.428,17.74c2.25,4.979,5.492,9.388,7.808,14.344c-8.241-7.603-15.227-16.18-21.992-25.077
			c-3.031-3.988-6.573-7.556-9.557-11.577c-3.129-4.217-5.453-9.009-8.115-13.522c-2.621-4.443-5.026-9.005-7.371-13.598
			c-0.539-1.055-4.003-10.13-5.458-10.19c-1.978-0.08,6.009,19.783,6.917,21.619c2.446,4.695,4.854,9.473,7.61,13.993
			c2.91,4.775,6.728,8.706,10.321,12.947c7.993,9.44,15.185,19.175,24.462,27.494c2.225,1.997,4.41,4.025,6.566,6.098
			c2.164,2.08,3.197,4.54,4.646,7.144c2.997,5.39,6.466,10.486,10.123,15.443c1.531,2.075,3.341,5.742,5.472,7.186
			c0.889-0.555,1.6-0.376,2.129,0.54c0.633,0.549,1.266,1.1,1.9,1.648c0.853,0.738,1.336,1.481,2.36,1.525
			c1.015,0.043,2.529-1.249,2.515-2.299c-0.013-0.964-2.754-3.52-3.373-4.335c-2.217-2.919-4.247-5.98-6.29-9.023
			c12.07,9.909,24.57,20.079,38.087,27.971c6.305,3.68,14.326,7.003,19.273,12.427c4.867,5.335,10.21,9.537,15.894,13.893
			c0.84-2.688,2.021-5.351,4.595-6.78c-4.563-2.34-10.158-4.12-13.392-8.151C474.103,370.213,470.287,366.072,466.618,361.764z"/>
		<path d="M653.297,329.551c-2.727-0.019-5.43,0.374-8.153,0.419c-2.313,0.038-4.518-0.003-6.741,0.743
			c-2.875,0.963-5.17,2.538-8.214,3.025c-2.863,0.461-5.341,1.144-8.068,2.135c-2.79,1.014-4.526,2.004-6.73,3.982
			c-1.584,1.423-3.877,3.856-6.147,4.06c-1.001,0.089-1.708-0.734-2.455-0.731c-1.135,0.006-3.311,1.542-4.351,2.045
			c-3.005,1.451-5.911,3.11-8.706,4.935c3.11,1.497,7.064,0.899,10.015-0.377c3.636-1.574,7.398-2.875,11.025-4.462
			c3.478-1.525,6.516-3.199,10.18-4.344c3.831-1.198,7.915-1.112,11.623-2.59c3.211-1.28,5.535-1.978,9.014-2.178
			c3.397-0.196,6.783-0.904,10.088-1.721c1.097-0.27,6.877-1.449,6.321-3.355C661.396,329.083,654.874,329.604,653.297,329.551z"/>
		<path d="M735.322,401.163c0.389,0.056,1.335-0.798,1.285-1.189c-0.104-0.836-1.917-1.078-2.468-1.185
			C734.392,399.356,734.474,401.044,735.322,401.163z"/>
		<path d="M402.698,425.026c-0.983-0.453-2.597-0.622-3.642-0.828c-2.7-0.535-5.419-0.9-8.091-1.576
			c-5.4-1.368-10.377-3.265-15.391-5.66c-4.649-2.22-9.303-4.163-13.86-6.585c-1.217-0.646-4.045-2.556-4.821-0.646
			c-0.613,1.512,3.033,4.208,3.961,4.976c2.801,2.449,6.245,3.826,9.635,5.223c3.648,1.505,7.122,3.399,10.916,4.533
			c7.625,2.279,15.485,2.939,23.193,4.776c-0.108-0.882-0.257-1.758-0.444-2.625C404.28,425.485,403.795,424.957,402.698,425.026z"
			/>
	</g>
</g>
</svg>
